<?xml version="1.0" encoding="utf-8"?>
<!-- Generator: Adobe Illustrator 26.0.2, SVG Export Plug-In . SVG Version: 6.00 Build 0)  -->
<svg version="1.1" id="Capa_1" xmlns="http://www.w3.org/2000/svg" xmlns:xlink="http://www.w3.org/1999/xlink" x="0px" y="0px"
	 viewBox="0 0 24 24" style="enable-background:new 0 0 24 24;" xml:space="preserve">
<style type="text/css">
	.st0{fill:#FFFFFF;}
</style>
<path class="st0" d="M19.9,2H4.1C3,2,2,3,2,4.1v15.7C2,21,3,22,4.1,22h6.1v-6.8H7.5V12h2.8V9.6c0-2.8,1.7-4.3,4.2-4.3
	c1.2,0,2.5,0.2,2.5,0.2v2.7h-1.4c-1.4,0-1.8,0.9-1.8,1.7V12h3.1l-0.5,3.2h-2.6V22h6.1c1.2,0,2.1-1,2.1-2.1V4.1C22,3,21,2,19.9,2z"/>
</svg>
