<?xml version="1.0" encoding="utf-8"?>
<!-- Generator: Adobe Illustrator 26.0.2, SVG Export Plug-In . SVG Version: 6.00 Build 0)  -->
<svg version="1.1" id="Capa_1" xmlns="http://www.w3.org/2000/svg" xmlns:xlink="http://www.w3.org/1999/xlink" x="0px" y="0px"
	 viewBox="0 0 24 24" style="enable-background:new 0 0 24 24;" xml:space="preserve">
<style type="text/css">
	.st0{fill:#FFFFFF;}
</style>
<path class="st0" d="M19.9,2H4.1C3,2,2,3,2,4.1v15.7C2,21,3,22,4.1,22h15.7c1.2,0,2.1-1,2.1-2.1V4.1C22,3,21,2,19.9,2z M17.7,9.1
	c0,0.1,0,0.3,0,0.4c0,3.9-2.9,8.3-8.3,8.3c-1.7,0-3.2-0.5-4.5-1.3c0.2,0,0.5,0,0.7,0c1.4,0,2.6-0.5,3.6-1.2c-1.3,0-2.4-0.9-2.7-2
	c0.5,0.1,0.9,0.1,1.3-0.1c-1.3-0.3-2.3-1.5-2.3-2.9v0c0.4,0.2,0.8,0.4,1.3,0.4c-0.8-0.5-1.3-1.5-1.3-2.4c0-0.5,0.1-1,0.4-1.5
	c1.4,1.8,3.6,2.9,6,3.1c-0.4-2,1.1-3.6,2.9-3.6c0.8,0,1.6,0.4,2.1,0.9c0.7-0.1,1.3-0.4,1.9-0.7c-0.2,0.7-0.7,1.2-1.3,1.6
	C18,8,18.6,7.8,19.1,7.6C18.7,8.2,18.2,8.7,17.7,9.1z"/>
</svg>
