<svg id="Layer_1" data-name="Layer 1" xmlns="http://www.w3.org/2000/svg" viewBox="0 0 68 80"><defs><style>.cls-1{fill:none;}.cls-2{fill:#004884;}.cls-3{fill:#fff;}.cls-4{fill:#36c;}</style></defs><path class="cls-1" d="M11.71,67.9H40.1a15.18,15.18,0,0,1,.34-3.18H9.35v.82A2.36,2.36,0,0,0,11.71,67.9Z"/><path class="cls-1" d="M49.6,39V53.91a15.06,15.06,0,0,1,5.55-1.06h0V20.24H45.2a5.56,5.56,0,0,1-5.56-5.56V4.73H11.71A2.36,2.36,0,0,0,9.35,7.09v7H33.6a1.52,1.52,0,0,1,1.53,1.53h0a1.53,1.53,0,0,1-1.53,1.53H9.35v2.57H33.6a1.53,1.53,0,1,1,0,3.06H9.35v2.57H33.6a1.54,1.54,0,0,1,0,3.07H9.35V31H33.6a1.53,1.53,0,1,1,0,3.06H9.35v5H49.6Z"/><path class="cls-2" d="M55.15,52.85a15.12,15.12,0,0,1,4.73.76V20.24H55.15Z"/><path class="cls-2" d="M11.71,67.9a2.36,2.36,0,0,1-2.36-2.36v-.82H4.62v.82a7.09,7.09,0,0,0,7.09,7.09H40.86a15.12,15.12,0,0,1-.76-4.73Z"/><path class="cls-2" d="M9.35,34V7.09a2.36,2.36,0,0,1,2.36-2.36H39.64V0H11.71A7.08,7.08,0,0,0,4.62,7.09V39H9.35Z"/><path class="cls-2" d="M39.64,14.68a5.56,5.56,0,0,0,5.56,5.56h9.95V13.47L46.41,4.73H39.64Z"/><polygon class="cls-2" points="59.88 20.23 59.88 18.2 55.15 13.47 55.15 20.23 59.88 20.23"/><polygon class="cls-2" points="46.41 4.73 41.68 0 39.64 0 39.64 4.73 46.41 4.73"/><path class="cls-2" d="M27.51,55.56a3.31,3.31,0,1,0-3.23-3.31A3.15,3.15,0,0,0,27.51,55.56Z"/><path class="cls-2" d="M40.44,64.72A15.12,15.12,0,0,1,49.6,53.91V39H9.35V64.72H40.44Zm-.5-17.82a5.3,5.3,0,0,1,4.25,1.84l-1.53,1.41a3.36,3.36,0,0,0-2.6-1.21,3.31,3.31,0,0,0,0,6.62,3.31,3.31,0,0,0,2.6-1.22l1.53,1.41a5.29,5.29,0,0,1-4.27,1.85,5.36,5.36,0,1,1,0-10.7Zm-12.43,0a5.36,5.36,0,1,1,0,10.7,5.36,5.36,0,1,1,0-10.7Zm-17.21.18H15c3.39,0,5.71,2,5.71,5.17S18.39,57.42,15,57.42H10.3Z"/><path class="cls-2" d="M9.35,64.72V39H4.62V64.72Zm-2.21-10a1.39,1.39,0,0,1,1.44,1.42,1.44,1.44,0,1,1-2.87,0A1.38,1.38,0,0,1,7.14,54.67Z"/><path class="cls-3" d="M7.14,57.54a1.41,1.41,0,0,0,1.44-1.45,1.39,1.39,0,0,0-1.44-1.42,1.38,1.38,0,0,0-1.43,1.42A1.41,1.41,0,0,0,7.14,57.54Z"/><polygon class="cls-2" points="4.62 38.97 0.75 38.97 0.75 42.6 0.75 61.49 0.75 64.72 4.62 64.72 4.62 38.97"/><path class="cls-2" d="M18.28,52.25a3.08,3.08,0,0,0-3.4-3.2H12.7v6.41h2.18A3.09,3.09,0,0,0,18.28,52.25Z"/><path class="cls-3" d="M20.71,52.25c0-3.13-2.32-5.17-5.71-5.17H10.3V57.42H15C18.39,57.42,20.71,55.38,20.71,52.25Zm-8,3.21V49.05h2.18a3.21,3.21,0,1,1,0,6.41Z"/><path class="cls-3" d="M27.51,57.6a5.36,5.36,0,1,0,0-10.7,5.36,5.36,0,1,0,0,10.7Zm0-8.66a3.31,3.31,0,1,1-3.23,3.31A3.16,3.16,0,0,1,27.51,48.94Z"/><path class="cls-3" d="M39.92,57.6a5.29,5.29,0,0,0,4.27-1.85l-1.53-1.41a3.31,3.31,0,0,1-2.6,1.22,3.31,3.31,0,0,1,0-6.62,3.36,3.36,0,0,1,2.6,1.21l1.53-1.41a5.3,5.3,0,0,0-4.25-1.84,5.36,5.36,0,1,0,0,10.7Z"/><path class="cls-4" d="M35.13,26.85a1.53,1.53,0,0,0-1.53-1.54H9.35v3.07H33.6A1.53,1.53,0,0,0,35.13,26.85Z"/><path class="cls-4" d="M35.13,32.48A1.52,1.52,0,0,0,33.6,31H9.35V34H33.6A1.52,1.52,0,0,0,35.13,32.48Z"/><path class="cls-4" d="M35.13,21.21a1.53,1.53,0,0,0-1.53-1.53H9.35v3.06H33.6A1.52,1.52,0,0,0,35.13,21.21Z"/><path class="cls-4" d="M35.13,15.58h0a1.52,1.52,0,0,0-1.53-1.53H9.35v3.06H33.6A1.53,1.53,0,0,0,35.13,15.58Z"/><path class="cls-4" d="M60.81,62.27a3.64,3.64,0,0,1,0,5.11l-2.16,2.21s0,0,0,0v0a7,7,0,0,1-2,2c-.72.77-1.67,1.67-2,2a3.64,3.64,0,0,1-5.14,0,3.58,3.58,0,0,1-.68-.93H44A12.1,12.1,0,1,0,59.88,56.76V61.6A3.72,3.72,0,0,1,60.81,62.27Z"/><path class="cls-4" d="M52.69,72.63H51.27A1.76,1.76,0,0,0,52.69,72.63Z"/><path class="cls-4" d="M59.88,64V65.5A1.74,1.74,0,0,0,59.88,64Z"/><path class="cls-4" d="M54.25,66.78a1.68,1.68,0,0,0,0,.63,2.33,2.33,0,0,0,.93-1.87v0a3,3,0,0,0-.9,1.28Z"/><path class="cls-4" d="M43.48,64.72a12,12,0,0,0-.43,3.18H50l1.65-1.68s0,0,0,0a4.86,4.86,0,0,0,0,1.66h.85a3.65,3.65,0,0,1,.92-3.33h0l1.73-1.77v-7h0a12,12,0,0,0-5.55,1.35v7.57Z"/><path class="cls-4" d="M55.64,62.29a3.63,3.63,0,0,1,4.24-.69V56.76a12,12,0,0,0-4.73-1v7Z"/><path class="cls-4" d="M51.76,68.77l-1,1a1.75,1.75,0,0,0,0,2.47,1.69,1.69,0,0,0,.51.34h1.42a1.88,1.88,0,0,0,.53-.37c.37-.38,1.31-1.33,1.67-1.71h0c.48-.49,1.09-1,1.17-1.64h0a1.7,1.7,0,0,0-.18-1.1h0a1.84,1.84,0,0,0-.7-.71.16.16,0,0,1-.06-.21,3.46,3.46,0,0,1,1-1.18.19.19,0,0,1,.23,0,3.66,3.66,0,0,1,1.47,2.1h0a3.74,3.74,0,0,1-.32,2.65h0a5.14,5.14,0,0,1-.84,1.06,7,7,0,0,0,2-2,4.74,4.74,0,0,0-.13-2.34.16.16,0,0,1,0-.18l1-1a1.71,1.71,0,0,0,.33-.48V64a1.88,1.88,0,0,0-.35-.5,1.73,1.73,0,0,0-2.45,0L55.4,65.25h0c-.08.08-.16.17-.25.25v0a2.33,2.33,0,0,1-.93,1.87,2.05,2.05,0,0,0,.18.58h0a1.89,1.89,0,0,0,.71.72.14.14,0,0,1,0,.2,6.27,6.27,0,0,1-1,1.2.15.15,0,0,1-.19,0,3.58,3.58,0,0,1-1.5-2.23h-.85a4.37,4.37,0,0,0,.16.69A.19.19,0,0,1,51.76,68.77Z"/><path class="cls-4" d="M49.48,68.4l.49-.5H43.05a12,12,0,0,0,1,4.73h4.82A3.71,3.71,0,0,1,49.48,68.4Z"/><path class="cls-4" d="M43.48,64.72H49.6V57.15A12.13,12.13,0,0,0,43.48,64.72Z"/><path class="cls-3" d="M59.88,65.5v0a7,7,0,0,1-1.25,4v0s0,0,0,0l2.16-2.21a3.64,3.64,0,0,0,0-5.11,3.72,3.72,0,0,0-.93-.67V64A1.74,1.74,0,0,1,59.88,65.5Z"/><path class="cls-3" d="M54.22,67.41a1.68,1.68,0,0,1,0-.63h0a3,3,0,0,1,.9-1.28V62.79l-1.73,1.77h0a3.65,3.65,0,0,0-.92,3.33h.3A2.31,2.31,0,0,0,54.22,67.41Z"/><path class="cls-3" d="M59.88,65.5a1.71,1.71,0,0,1-.33.48l-1,1a.16.16,0,0,0,0,.18,4.74,4.74,0,0,1,.13,2.34,7,7,0,0,0,1.25-4Z"/><path class="cls-3" d="M55.4,65.25h0l1.68-1.72a1.73,1.73,0,0,1,2.45,0,1.88,1.88,0,0,1,.35.5V61.6a3.63,3.63,0,0,0-4.24.69l-.49.5V65.5C55.24,65.42,55.32,65.33,55.4,65.25Z"/><path class="cls-3" d="M54,70.13a.15.15,0,0,0,.19,0,6.27,6.27,0,0,0,1-1.2.14.14,0,0,0,0-.2A1.89,1.89,0,0,1,54.4,68h0a2.05,2.05,0,0,1-.18-.58,2.31,2.31,0,0,1-1.43.49h-.3A3.58,3.58,0,0,0,54,70.13Z"/><path class="cls-3" d="M52.69,72.63a1.76,1.76,0,0,1-1.42,0H48.83a3.58,3.58,0,0,0,.68.93,3.64,3.64,0,0,0,5.14,0c.3-.34,1.25-1.24,2-2a7.08,7.08,0,0,1-3.83,1.13Z"/><path class="cls-3" d="M51.65,66.24s0,0,0,0L50,67.9h1.67A4.86,4.86,0,0,1,51.65,66.24Z"/><path class="cls-3" d="M48.83,72.63h2.44a1.69,1.69,0,0,1-.51-.34,1.75,1.75,0,0,1,0-2.47l1-1a.19.19,0,0,0,0-.18,4.37,4.37,0,0,1-.16-.69H50l-.49.5A3.71,3.71,0,0,0,48.83,72.63Z"/><path class="cls-3" d="M57.46,70.44h0a3.74,3.74,0,0,0,.32-2.65h0a3.66,3.66,0,0,0-1.47-2.1.19.19,0,0,0-.23,0,3.46,3.46,0,0,0-1,1.18.16.16,0,0,0,.06.21,1.84,1.84,0,0,1,.7.71h0a1.7,1.7,0,0,1,.18,1.1h0c-.08.6-.69,1.15-1.17,1.64h0c-.36.38-1.3,1.33-1.67,1.71a1.88,1.88,0,0,1-.53.37h.1a7.08,7.08,0,0,0,3.83-1.13,5.14,5.14,0,0,0,.84-1.06Z"/></svg>