<svg id="Layer_1" data-name="Layer 1" xmlns="http://www.w3.org/2000/svg" viewBox="0 0 68 80"><defs><style>.cls-1{fill:none;}.cls-2{fill:#004884;}.cls-3{fill:#fff;}.cls-4{fill:#36c;}</style></defs><path class="cls-1" d="M15.4,67.9H56.47a2.37,2.37,0,0,0,2.37-2.36V20.24h-10a5.55,5.55,0,0,1-5.55-5.56V4.73H15.4A2.37,2.37,0,0,0,13,7.09v7H37.29a1.53,1.53,0,0,1,1.53,1.53h0a1.54,1.54,0,0,1-1.53,1.53H13v2.57H37.29a1.53,1.53,0,1,1,0,3.06H13v2.57H37.29a1.54,1.54,0,0,1,0,3.07H13V31H37.29a1.53,1.53,0,1,1,0,3.06H13v5H53.29V64.72H13v.82A2.37,2.37,0,0,0,15.4,67.9Z"/><path class="cls-2" d="M58.84,65.54a2.37,2.37,0,0,1-2.37,2.36H15.4A2.37,2.37,0,0,1,13,65.54v-.82H8.31v.82a7.09,7.09,0,0,0,7.09,7.09H56.47a7.09,7.09,0,0,0,7.09-7.09V20.24H58.84Z"/><path class="cls-2" d="M13,34V7.09A2.37,2.37,0,0,1,15.4,4.73H43.33V0H15.4A7.08,7.08,0,0,0,8.31,7.09V39H13Z"/><path class="cls-2" d="M43.33,14.68a5.55,5.55,0,0,0,5.55,5.56h10V13.47L50.09,4.73H43.33Z"/><polygon class="cls-2" points="63.56 20.23 63.56 18.2 58.84 13.47 58.84 20.23 63.56 20.23"/><polygon class="cls-2" points="50.09 4.73 45.37 0 43.33 0 43.33 4.73 50.09 4.73"/><polygon class="cls-2" points="8.3 38.97 4.43 38.97 4.43 42.6 4.43 61.49 4.43 64.72 8.3 64.72 8.3 38.97"/><path class="cls-2" d="M22,52.25a3.09,3.09,0,0,0-3.4-3.2H16.38v6.41h2.19A3.09,3.09,0,0,0,22,52.25Z"/><path class="cls-2" d="M31.2,55.56A3.31,3.31,0,1,0,28,52.25,3.15,3.15,0,0,0,31.2,55.56Z"/><path class="cls-2" d="M53.29,64.72V39H13V64.72H53.29ZM43.62,46.9a5.33,5.33,0,0,1,4.26,1.84l-1.54,1.41a3.34,3.34,0,0,0-2.6-1.21,3.31,3.31,0,0,0,0,6.62,3.28,3.28,0,0,0,2.6-1.22l1.54,1.41a5.32,5.32,0,0,1-4.27,1.85,5.36,5.36,0,1,1,0-10.7Zm-12.42,0a5.36,5.36,0,1,1,0,10.7,5.36,5.36,0,1,1,0-10.7ZM14,47.08h4.7c3.38,0,5.7,2,5.7,5.17s-2.32,5.17-5.7,5.17H14Z"/><path class="cls-2" d="M13,64.72V39H8.31V64.72Zm-2.2-10a1.38,1.38,0,0,1,1.43,1.42,1.43,1.43,0,1,1-2.86,0A1.38,1.38,0,0,1,10.83,54.67Z"/><path class="cls-3" d="M10.83,57.54a1.4,1.4,0,0,0,1.43-1.45,1.43,1.43,0,0,0-2.86,0A1.4,1.4,0,0,0,10.83,57.54Z"/><path class="cls-3" d="M24.39,52.25c0-3.13-2.32-5.17-5.7-5.17H14V57.42h4.7C22.07,57.42,24.39,55.38,24.39,52.25Zm-8,3.21V49.05h2.19a3.21,3.21,0,1,1,0,6.41Z"/><path class="cls-3" d="M31.2,57.6a5.36,5.36,0,1,0,0-10.7,5.36,5.36,0,1,0,0,10.7Zm0-8.66A3.31,3.31,0,1,1,28,52.25,3.16,3.16,0,0,1,31.2,48.94Z"/><path class="cls-3" d="M43.61,57.6a5.32,5.32,0,0,0,4.27-1.85l-1.54-1.41a3.28,3.28,0,0,1-2.6,1.22,3.31,3.31,0,0,1,0-6.62,3.34,3.34,0,0,1,2.6,1.21l1.54-1.41a5.33,5.33,0,0,0-4.26-1.84,5.36,5.36,0,1,0,0,10.7Z"/><path class="cls-4" d="M38.82,26.85a1.54,1.54,0,0,0-1.53-1.54H13v3.07H37.29A1.54,1.54,0,0,0,38.82,26.85Z"/><path class="cls-4" d="M38.82,32.48A1.53,1.53,0,0,0,37.29,31H13V34H37.29A1.53,1.53,0,0,0,38.82,32.48Z"/><path class="cls-4" d="M38.82,21.21a1.54,1.54,0,0,0-1.53-1.53H13v3.06H37.29A1.53,1.53,0,0,0,38.82,21.21Z"/><path class="cls-4" d="M38.82,15.58h0a1.53,1.53,0,0,0-1.53-1.53H13v3.06H37.29A1.54,1.54,0,0,0,38.82,15.58Z"/></svg>