<svg id="Layer_1" data-name="Layer 1" xmlns="http://www.w3.org/2000/svg" viewBox="0 0 68 80"><defs><style>.cls-1{fill:none;}.cls-2{fill:#004884;}.cls-3{fill:#36c;}.cls-4{fill:#fff;}</style></defs><path class="cls-1" d="M49.61,53.9a14.84,14.84,0,0,1,5.54-1.06h0V7.09A2.37,2.37,0,0,0,52.8,4.73H12.5a2.37,2.37,0,0,0-2.37,2.36V39H49.61ZM42.37,33.73c-3.43-.06-6.86,0-10.29,0s-6.7,0-10,0a2.3,2.3,0,0,1-2.29-1.15A2.48,2.48,0,0,1,20,29.91c1.52-2.38,3-4.77,4.54-7.17a2.62,2.62,0,0,1,2.15-1.38,1.94,1.94,0,0,1,1.73.8l.93,1.18a2.24,2.24,0,0,0,3.79-.09c.92-1.32,1.8-2.65,2.71-4a2.29,2.29,0,0,1,2.41-1,2.07,2.07,0,0,1,1.68,1.31c1.55,3.63,3.11,7.25,4.65,10.89A2.36,2.36,0,0,1,42.37,33.73Zm.17-16.62a3.31,3.31,0,1,1,0-6.61,3.44,3.44,0,0,1,3.28,3.32A3.43,3.43,0,0,1,42.54,17.11Z"/><path class="cls-1" d="M40.43,64.75H10.13v.82a2.37,2.37,0,0,0,2.37,2.36H40.09v0A14.9,14.9,0,0,1,40.43,64.75Z"/><path class="cls-2" d="M10.13,39V7.09A2.37,2.37,0,0,1,12.5,4.73H52.8a2.37,2.37,0,0,1,2.37,2.36V52.84a14.84,14.84,0,0,1,4.73.77V7.09A7.1,7.1,0,0,0,52.8,0H12.5A7.1,7.1,0,0,0,5.4,7.09V39h4.73Z"/><path class="cls-2" d="M12.5,67.93a2.37,2.37,0,0,1-2.37-2.36v-.82H5.4v.82a7.1,7.1,0,0,0,7.1,7.09H40.87a15.13,15.13,0,0,1-.78-4.73Z"/><path class="cls-3" d="M39.91,19.58a2.07,2.07,0,0,0-1.68-1.31,2.29,2.29,0,0,0-2.41,1c-.91,1.32-1.79,2.65-2.71,4a2.24,2.24,0,0,1-3.79.09l-.93-1.18a1.94,1.94,0,0,0-1.73-.8,2.62,2.62,0,0,0-2.15,1.38c-1.5,2.4-3,4.79-4.54,7.17a2.48,2.48,0,0,0-.23,2.66A2.3,2.3,0,0,0,22,33.72c3.35,0,6.7,0,10,0s6.86,0,10.29,0a2.36,2.36,0,0,0,2.19-3.26C43,26.83,41.46,23.21,39.91,19.58Z"/><path class="cls-3" d="M42.57,10.5a3.31,3.31,0,1,0,0,6.61,3.43,3.43,0,0,0,3.31-3.29A3.44,3.44,0,0,0,42.57,10.5Z"/><path class="cls-2" d="M49.61,53.9V39H10.13v6.82h2V57.45h-2v7.3h30.3A15.07,15.07,0,0,1,49.61,53.9ZM25.53,57.45l0-7-3.42,5.75H20.87l-3.41-5.6v6.83H14.94V45.81h2.22L21.52,53l4.29-7.23H28l0,11.64Zm4.55-5.82c0-3.51,2.7-6,6.4-6a6.2,6.2,0,0,1,4.87,2l-1.73,1.6a3.9,3.9,0,0,0-3-1.31,3.72,3.72,0,1,0,0,7.44,4.25,4.25,0,0,0,2.1-.5v-3.4h2.46v4.72a8.06,8.06,0,0,1-4.71,1.48C32.78,57.65,30.08,55.14,30.08,51.63Z"/><polygon class="cls-2" points="4.61 38.99 0.74 38.99 0.74 42.62 0.74 61.52 0.74 64.75 4.61 64.75 5.4 64.75 5.4 38.99 4.61 38.99"/><polygon class="cls-2" points="10.13 64.75 10.13 57.45 9.48 57.45 9.48 45.81 10.13 45.81 10.13 38.99 9.35 38.99 5.4 38.99 5.4 64.75 9.35 64.75 10.13 64.75"/><rect class="cls-4" x="10.13" y="45.81" width="2.05" height="11.64"/><rect class="cls-4" x="9.48" y="45.81" width="0.65" height="11.64"/><polygon class="cls-4" points="25.81 45.81 21.52 53.04 17.16 45.81 14.94 45.81 14.94 57.45 17.46 57.45 17.46 50.62 20.87 56.22 22.09 56.22 25.51 50.47 25.53 57.45 28.05 57.45 28.02 45.81 25.81 45.81"/><path class="cls-4" d="M41.14,56.17V51.45H38.68v3.4a4.25,4.25,0,0,1-2.1.5,3.72,3.72,0,1,1,0-7.44,3.9,3.9,0,0,1,3,1.31l1.73-1.6a6.2,6.2,0,0,0-4.87-2c-3.7,0-6.4,2.51-6.4,6s2.7,6,6.35,6A8.06,8.06,0,0,0,41.14,56.17Z"/><path class="cls-3" d="M59.9,64v1.42A1.76,1.76,0,0,0,59.9,64Z"/><path class="cls-3" d="M54.25,66.77a2,2,0,0,0,0,.68,2.38,2.38,0,0,0,.94-1.88v-.09a3,3,0,0,0-.92,1.29Z"/><path class="cls-3" d="M60.81,62.26a3.66,3.66,0,0,1,0,5.12l-2.17,2.21h0a6.85,6.85,0,0,1-2.13,2c-.7.74-1.57,1.57-1.86,1.9a3.64,3.64,0,0,1-5.14,0,3.6,3.6,0,0,1-.66-.9H44A12.11,12.11,0,1,0,59.9,56.76v4.83A3.45,3.45,0,0,1,60.81,62.26Z"/><path class="cls-3" d="M49.61,57.13v7.62H43.46a12.09,12.09,0,0,0-.41,3.15v0h6.88l1.69-1.72s0,0,0,0a5.09,5.09,0,0,0,0,1.7h.86a3.68,3.68,0,0,1,.91-3.37h0l1.75-1.78v-7h0A12.15,12.15,0,0,0,49.61,57.13Z"/><path class="cls-3" d="M52.6,72.66H51.35A1.74,1.74,0,0,0,52.6,72.66Z"/><path class="cls-3" d="M49.48,68.39l.45-.46H43.05a12,12,0,0,0,1,4.73h4.83A3.7,3.7,0,0,1,49.48,68.39Z"/><path class="cls-3" d="M51.76,68.77l-1,1a1.74,1.74,0,0,0,0,2.46,1.62,1.62,0,0,0,.59.38H52.6a1.79,1.79,0,0,0,.62-.4l1.68-1.71h0c.49-.5,1.09-1,1.17-1.65h0a1.56,1.56,0,0,0-.18-1.09h0a1.78,1.78,0,0,0-.69-.72.15.15,0,0,1-.07-.21,3.46,3.46,0,0,1,1-1.18.2.2,0,0,1,.22,0,3.66,3.66,0,0,1,1.47,2.1h0a3.72,3.72,0,0,1-.32,2.64h0a5.47,5.47,0,0,1-1,1.18,6.85,6.85,0,0,0,2.13-2,0,0,0,0,1,0,0,4.83,4.83,0,0,0-.13-2.36.19.19,0,0,1,0-.19l1-1a1.57,1.57,0,0,0,.34-.51V64a1.88,1.88,0,0,0-.37-.53,1.73,1.73,0,0,0-2.45,0L55.4,65.24h0l-.23.24v.09a2.38,2.38,0,0,1-.94,1.88,2,2,0,0,0,.17.53h0a1.85,1.85,0,0,0,.71.73.15.15,0,0,1,.06.2,6.33,6.33,0,0,1-1,1.19.15.15,0,0,1-.19,0,3.58,3.58,0,0,1-1.49-2.19h-.86a4.25,4.25,0,0,0,.16.66A.2.2,0,0,1,51.76,68.77Z"/><path class="cls-3" d="M55.64,62.29a3.65,3.65,0,0,1,4.26-.7V56.76a12,12,0,0,0-4.73-1v7Z"/><path class="cls-3" d="M49.61,57.13a12.16,12.16,0,0,0-6.15,7.62h6.15Z"/><path class="cls-4" d="M59.9,65.46v.11a7,7,0,0,1-1.26,4h0l2.17-2.21a3.66,3.66,0,0,0,0-5.12,3.45,3.45,0,0,0-.91-.67V64A1.76,1.76,0,0,1,59.9,65.46Z"/><path class="cls-4" d="M54.23,67.45a2,2,0,0,1,0-.68h0a3,3,0,0,1,.92-1.29V62.77l-1.75,1.78h0a3.68,3.68,0,0,0-.91,3.37h.3A2.37,2.37,0,0,0,54.23,67.45Z"/><path class="cls-4" d="M55.4,65.24h0l1.68-1.72a1.73,1.73,0,0,1,2.45,0,1.88,1.88,0,0,1,.37.53V61.59a3.65,3.65,0,0,0-4.26.7l-.47.48v2.71Z"/><path class="cls-4" d="M59.9,65.46a1.57,1.57,0,0,1-.34.51l-1,1a.19.19,0,0,0,0,.19,4.83,4.83,0,0,1,.13,2.36,0,0,0,0,0,0,0,7,7,0,0,0,1.26-4Z"/><path class="cls-4" d="M54,70.12a.15.15,0,0,0,.19,0,6.33,6.33,0,0,0,1-1.19.15.15,0,0,0-.06-.2A1.85,1.85,0,0,1,54.4,68h0a2,2,0,0,1-.17-.53,2.37,2.37,0,0,1-1.43.48h-.3A3.58,3.58,0,0,0,54,70.12Z"/><path class="cls-4" d="M52.6,72.66a1.74,1.74,0,0,1-1.25,0h-2.5a3.6,3.6,0,0,0,.66.9,3.64,3.64,0,0,0,5.14,0c.29-.33,1.16-1.16,1.86-1.9a7,7,0,0,1-3.71,1Z"/><path class="cls-4" d="M51.65,66.23s0,0,0,0l-1.69,1.72h1.71A5.09,5.09,0,0,1,51.65,66.23Z"/><path class="cls-4" d="M57.47,70.43h0a3.72,3.72,0,0,0,.32-2.64h0a3.66,3.66,0,0,0-1.47-2.1.2.2,0,0,0-.22,0,3.46,3.46,0,0,0-1,1.18.15.15,0,0,0,.07.21,1.78,1.78,0,0,1,.69.72h0a1.56,1.56,0,0,1,.18,1.09h0c-.08.6-.68,1.15-1.17,1.65h0l-1.68,1.71a1.79,1.79,0,0,1-.62.4h.2a7,7,0,0,0,3.71-1,5.47,5.47,0,0,0,1-1.18Z"/><path class="cls-4" d="M48.85,72.66h2.5a1.62,1.62,0,0,1-.59-.38,1.74,1.74,0,0,1,0-2.46l1-1a.2.2,0,0,0,0-.18,4.25,4.25,0,0,1-.16-.66H49.93l-.45.46A3.7,3.7,0,0,0,48.85,72.66Z"/></svg>