<svg id="Layer_1" data-name="Layer 1" xmlns="http://www.w3.org/2000/svg" viewBox="0 0 68 80"><defs><style>.cls-1{fill:none;}.cls-2{fill:#004884;}.cls-3{fill:#36c;}.cls-4{fill:#fff;}</style></defs><path class="cls-1" d="M53.29,64.75H13.81v.82a2.37,2.37,0,0,0,2.37,2.36h40.3a2.37,2.37,0,0,0,2.37-2.36V7.09a2.37,2.37,0,0,0-2.37-2.36H16.18a2.37,2.37,0,0,0-2.37,2.36V39H53.29Zm-7.24-31c-3.43-.06-6.86,0-10.29,0s-6.7,0-10,0a2.3,2.3,0,0,1-2.29-1.15,2.48,2.48,0,0,1,.23-2.66c1.52-2.38,3-4.77,4.54-7.17a2.62,2.62,0,0,1,2.15-1.38,1.94,1.94,0,0,1,1.73.8L33,23.34a2.24,2.24,0,0,0,3.79-.09c.92-1.32,1.8-2.65,2.71-4a2.29,2.29,0,0,1,2.41-1,2.07,2.07,0,0,1,1.68,1.31c1.55,3.63,3.11,7.25,4.65,10.89A2.36,2.36,0,0,1,46.05,33.73Zm.17-16.62a3.31,3.31,0,1,1,0-6.61,3.44,3.44,0,0,1,3.28,3.32A3.43,3.43,0,0,1,46.22,17.11Z"/><path class="cls-2" d="M56.48,0H16.18a7.1,7.1,0,0,0-7.1,7.09V39h4.73V7.09a2.37,2.37,0,0,1,2.37-2.36h40.3a2.37,2.37,0,0,1,2.37,2.36V65.57a2.37,2.37,0,0,1-2.37,2.36H16.18a2.37,2.37,0,0,1-2.37-2.36v-.82H9.08v.82a7.1,7.1,0,0,0,7.1,7.09h40.3a7.1,7.1,0,0,0,7.1-7.09V7.09A7.1,7.1,0,0,0,56.48,0Z"/><path class="cls-3" d="M43.59,19.58a2.07,2.07,0,0,0-1.68-1.31,2.29,2.29,0,0,0-2.41,1c-.91,1.32-1.79,2.65-2.71,4a2.24,2.24,0,0,1-3.79.09l-.93-1.18a1.94,1.94,0,0,0-1.73-.8,2.62,2.62,0,0,0-2.15,1.38c-1.5,2.4-3,4.79-4.54,7.17a2.48,2.48,0,0,0-.23,2.66,2.3,2.3,0,0,0,2.29,1.15c3.35,0,6.7,0,10,0s6.86,0,10.29,0a2.36,2.36,0,0,0,2.19-3.26C46.7,26.83,45.14,23.21,43.59,19.58Z"/><path class="cls-3" d="M46.25,10.5a3.31,3.31,0,1,0,0,6.61,3.43,3.43,0,0,0,3.31-3.29A3.44,3.44,0,0,0,46.25,10.5Z"/><polygon class="cls-2" points="8.29 38.99 4.42 38.99 4.42 42.62 4.42 61.52 4.42 64.75 8.29 64.75 9.08 64.75 9.08 38.99 8.29 38.99"/><path class="cls-2" d="M15.86,45.81V57.45h-2v7.3H53.29V39H13.81v6.82Zm24.3-.2a6.2,6.2,0,0,1,4.87,2l-1.72,1.6a3.93,3.93,0,0,0-3-1.31,3.72,3.72,0,1,0,0,7.44,4.25,4.25,0,0,0,2.1-.5v-3.4h2.46v4.72a8.06,8.06,0,0,1-4.71,1.48c-3.65,0-6.35-2.51-6.35-6S36.46,45.61,40.16,45.61Zm-21.54.2h2.22L25.2,53l4.29-7.23H31.7l0,11.64H29.21l0-7-3.42,5.75H24.55l-3.41-5.6v6.83H18.62Z"/><polygon class="cls-2" points="13.81 64.75 13.81 57.45 13.16 57.45 13.16 45.81 13.81 45.81 13.81 38.99 13.03 38.99 9.08 38.99 9.08 64.75 13.03 64.75 13.81 64.75"/><rect class="cls-4" x="13.81" y="45.81" width="2.04" height="11.64"/><rect class="cls-4" x="13.16" y="45.81" width="0.65" height="11.64"/><polygon class="cls-4" points="21.14 50.62 24.55 56.22 25.77 56.22 29.19 50.47 29.21 57.45 31.73 57.45 31.7 45.81 29.49 45.81 25.2 53.04 20.84 45.81 18.62 45.81 18.62 57.45 21.14 57.45 21.14 50.62"/><path class="cls-4" d="M40.11,57.65a8.06,8.06,0,0,0,4.71-1.48V51.45H42.36v3.4a4.25,4.25,0,0,1-2.1.5,3.72,3.72,0,1,1,0-7.44,3.93,3.93,0,0,1,3,1.31L45,47.62a6.2,6.2,0,0,0-4.87-2c-3.7,0-6.4,2.51-6.4,6S36.46,57.65,40.11,57.65Z"/></svg>