<svg id="Layer_1" data-name="Layer 1" xmlns="http://www.w3.org/2000/svg" viewBox="0 0 68 80"><defs><style>.cls-1{fill:none;}.cls-2{fill:#004884;}.cls-3{fill:#fff;}.cls-4{fill:#36c;}</style></defs><path class="cls-1" d="M23.47,19.15l.09,0a13.2,13.2,0,0,0,.6-3.41A1.67,1.67,0,0,0,24,15c-.09-.21-.31-.35-.47-.53a2.48,2.48,0,0,0-.43.55A4.61,4.61,0,0,0,23,17.72C23.14,18.2,23.32,18.67,23.47,19.15Z"/><path class="cls-1" d="M16.18,33.16a4.75,4.75,0,0,0,.55-.43,15.42,15.42,0,0,0,2.33-3.17L19,29.48a13.89,13.89,0,0,0-1.57,1,13.28,13.28,0,0,0-1.5,1.5,1,1,0,0,0-.13,1.08C15.89,33.26,16,33.29,16.18,33.16Z"/><path class="cls-1" d="M49.6,39V53.91a15.06,15.06,0,0,1,5.55-1.06V20.24H45.2a5.56,5.56,0,0,1-5.56-5.56V4.73H11.71A2.36,2.36,0,0,0,9.35,7.09V39H49.6ZM14.41,31.24a7.9,7.9,0,0,1,1.26-1.51,12.37,12.37,0,0,1,4.4-2.48.7.7,0,0,0,.46-.43q1.09-2.58,2.2-5.14a.51.51,0,0,0-.05-.53A9,9,0,0,1,21.22,16a4.45,4.45,0,0,1,.68-2.32,1.91,1.91,0,0,1,3.2-.2,3.39,3.39,0,0,1,.73,2.56,18.73,18.73,0,0,1-1,4.68.72.72,0,0,0,.12.8q1.7,2,3.38,4a.58.58,0,0,0,.52.22c.27,0,.53,0,.8,0a13.4,13.4,0,0,1,4.26.66,5.75,5.75,0,0,1,1,.5,2,2,0,0,1,.35,3.29,2.56,2.56,0,0,1-2.82.7,6,6,0,0,1-2.31-1.31c-.67-.59-1.31-1.21-2-1.84a.86.86,0,0,0-.74-.28,28.47,28.47,0,0,0-5.51.94.73.73,0,0,0-.51.41,21.46,21.46,0,0,1-3.24,4.86,5.88,5.88,0,0,1-1.21,1,1.76,1.76,0,0,1-2.66-.87A2.52,2.52,0,0,1,14.41,31.24Z"/><path class="cls-1" d="M24,23.13c-.47,1.12-.94,2.22-1.41,3.33l3.7-.62C25.51,24.94,24.75,24,24,23.13Z"/><path class="cls-1" d="M32.92,29.28A.89.89,0,0,0,34,29c.27-.34.25-.55-.14-.76a8.42,8.42,0,0,0-3.56-.8l0,.08a8.87,8.87,0,0,0,1,.86A10.21,10.21,0,0,0,32.92,29.28Z"/><path class="cls-1" d="M11.71,67.9H40.1a15.18,15.18,0,0,1,.34-3.18H9.35v.82A2.36,2.36,0,0,0,11.71,67.9Z"/><path class="cls-2" d="M55.15,52.85a15.12,15.12,0,0,1,4.73.76V20.24H55.15Z"/><path class="cls-2" d="M9.35,7.09a2.36,2.36,0,0,1,2.36-2.36H39.64V0H11.71A7.08,7.08,0,0,0,4.62,7.09V39H9.35Z"/><path class="cls-2" d="M11.71,67.9a2.36,2.36,0,0,1-2.36-2.36v-.82H4.62v.82a7.09,7.09,0,0,0,7.09,7.09H40.86a15.12,15.12,0,0,1-.76-4.73Z"/><path class="cls-2" d="M39.64,14.68a5.56,5.56,0,0,0,5.56,5.56h9.95V13.47L46.41,4.73H39.64Z"/><polygon class="cls-2" points="59.88 20.23 59.88 18.2 55.15 13.47 55.15 20.23 59.88 20.23"/><polygon class="cls-2" points="46.41 4.73 41.68 0 39.64 0 39.64 4.73 46.41 4.73"/><polygon class="cls-2" points="4.62 38.97 0.75 38.97 0.75 42.6 0.75 61.49 0.75 64.72 4.62 64.72 4.62 38.97"/><path class="cls-2" d="M40.44,64.72A15.12,15.12,0,0,1,49.6,53.91V39H9.35V54.73a1.36,1.36,0,0,1,1,1.36,1.41,1.41,0,0,1-1,1.39v7.24H40.44ZM35,47.08h7.81V49H37.36v2.73h4.79v1.93H37.36v3.76H35Zm-12.2,0h4.69c3.39,0,5.71,2,5.71,5.17s-2.32,5.17-5.71,5.17H22.77Zm-10.67,0h4.48c2.76,0,4.49,1.43,4.49,3.75s-1.73,3.74-4.49,3.74H14.49v2.85H12.1Z"/><path class="cls-2" d="M18.64,50.83c0-1.13-.73-1.8-2.2-1.8h-2v3.59h2C17.91,52.62,18.64,52,18.64,50.83Z"/><path class="cls-2" d="M30.74,52.25a3.08,3.08,0,0,0-3.4-3.2H25.16v6.41h2.18A3.09,3.09,0,0,0,30.74,52.25Z"/><path class="cls-2" d="M9.35,64.72V57.48A1.44,1.44,0,0,1,7.5,56.09a1.39,1.39,0,0,1,1.44-1.42,1.84,1.84,0,0,1,.41.06V39H4.62V64.72Z"/><path class="cls-3" d="M10.37,56.09a1.36,1.36,0,0,0-1-1.36v2.75A1.41,1.41,0,0,0,10.37,56.09Z"/><path class="cls-3" d="M8.94,54.67A1.39,1.39,0,0,0,7.5,56.09a1.44,1.44,0,0,0,1.85,1.39V54.73A1.84,1.84,0,0,0,8.94,54.67Z"/><path class="cls-3" d="M14.49,54.57h2.09c2.76,0,4.49-1.43,4.49-3.74s-1.73-3.75-4.49-3.75H12.1V57.42h2.39Zm0-5.54h2c1.47,0,2.2.67,2.2,1.8s-.73,1.79-2.2,1.79h-2Z"/><path class="cls-3" d="M33.17,52.25c0-3.13-2.32-5.17-5.71-5.17H22.77V57.42h4.69C30.85,57.42,33.17,55.38,33.17,52.25Zm-8,3.21V49.05h2.18a3.21,3.21,0,1,1,0,6.41Z"/><polygon class="cls-3" points="37.36 53.66 42.15 53.66 42.15 51.73 37.36 51.73 37.36 49 42.78 49 42.78 47.08 34.97 47.08 34.97 57.42 37.36 57.42 37.36 53.66"/><path class="cls-4" d="M16.94,34.63a5.88,5.88,0,0,0,1.21-1,21.46,21.46,0,0,0,3.24-4.86.73.73,0,0,1,.51-.41,28.47,28.47,0,0,1,5.51-.94.86.86,0,0,1,.74.28c.64.63,1.28,1.25,2,1.84a6,6,0,0,0,2.31,1.31,2.56,2.56,0,0,0,2.82-.7,2,2,0,0,0-.35-3.29,5.75,5.75,0,0,0-1-.5,13.4,13.4,0,0,0-4.26-.66c-.27,0-.53,0-.8,0a.58.58,0,0,1-.52-.22q-1.68-2-3.38-4a.72.72,0,0,1-.12-.8,18.73,18.73,0,0,0,1-4.68,3.39,3.39,0,0,0-.73-2.56,1.91,1.91,0,0,0-3.2.2A4.45,4.45,0,0,0,21.22,16a9,9,0,0,0,1.46,5.12.51.51,0,0,1,.05.53q-1.11,2.57-2.2,5.14a.7.7,0,0,1-.46.43,12.37,12.37,0,0,0-4.4,2.48,7.9,7.9,0,0,0-1.26,1.51,2.52,2.52,0,0,0-.13,2.52A1.76,1.76,0,0,0,16.94,34.63Zm13.4-7.18a8.42,8.42,0,0,1,3.56.8c.39.21.41.42.14.76a.89.89,0,0,1-1.12.27,10.21,10.21,0,0,1-1.62-.89,8.87,8.87,0,0,1-1-.86ZM23.13,15a2.48,2.48,0,0,1,.43-.55c.16.18.38.32.47.53a1.67,1.67,0,0,1,.13.77,13.2,13.2,0,0,1-.6,3.41l-.09,0c-.15-.48-.33-.95-.43-1.43A4.61,4.61,0,0,1,23.13,15ZM24,23.13c.76.9,1.52,1.81,2.29,2.71l-3.7.62C23.05,25.35,23.52,24.25,24,23.13ZM15.92,32a13.28,13.28,0,0,1,1.5-1.5,13.89,13.89,0,0,1,1.57-1l.07.08a15.42,15.42,0,0,1-2.33,3.17,4.75,4.75,0,0,1-.55.43c-.17.13-.29.1-.39-.11A1,1,0,0,1,15.92,32Z"/><path class="cls-4" d="M59.88,64V65.5A1.74,1.74,0,0,0,59.88,64Z"/><path class="cls-4" d="M60.81,62.27a3.64,3.64,0,0,1,0,5.11l-2.16,2.21s0,0,0,0v0a7,7,0,0,1-2,2c-.72.77-1.67,1.67-2,2a3.64,3.64,0,0,1-5.14,0,3.58,3.58,0,0,1-.68-.93H44A12.1,12.1,0,1,0,59.88,56.76V61.6A3.72,3.72,0,0,1,60.81,62.27Z"/><path class="cls-4" d="M52.69,72.63H51.27A1.76,1.76,0,0,0,52.69,72.63Z"/><path class="cls-4" d="M54.25,66.78a1.68,1.68,0,0,0,0,.63,2.33,2.33,0,0,0,.93-1.87v0a3,3,0,0,0-.9,1.28Z"/><path class="cls-4" d="M43.48,64.72a12,12,0,0,0-.43,3.18H50l1.65-1.68s0,0,0,0a4.86,4.86,0,0,0,0,1.66h.85a3.65,3.65,0,0,1,.92-3.33h0l1.73-1.77v-7a12,12,0,0,0-5.55,1.35v7.57Z"/><path class="cls-4" d="M55.64,62.29a3.63,3.63,0,0,1,4.24-.69V56.76a12,12,0,0,0-4.73-1v7Z"/><path class="cls-4" d="M51.76,68.77l-1,1a1.75,1.75,0,0,0,0,2.47,1.69,1.69,0,0,0,.51.34h1.42a1.88,1.88,0,0,0,.53-.37c.37-.38,1.31-1.33,1.67-1.71h0c.48-.49,1.09-1,1.17-1.64h0a1.7,1.7,0,0,0-.18-1.1h0a1.84,1.84,0,0,0-.7-.71.16.16,0,0,1-.06-.21,3.46,3.46,0,0,1,1-1.18.19.19,0,0,1,.23,0,3.66,3.66,0,0,1,1.47,2.1h0a3.74,3.74,0,0,1-.32,2.65h0a5.14,5.14,0,0,1-.84,1.06,7,7,0,0,0,2-2,4.74,4.74,0,0,0-.13-2.34.16.16,0,0,1,0-.18l1-1a1.71,1.71,0,0,0,.33-.48V64a1.88,1.88,0,0,0-.35-.5,1.73,1.73,0,0,0-2.45,0L55.4,65.25h0c-.08.08-.16.17-.25.25v0a2.33,2.33,0,0,1-.93,1.87,2.05,2.05,0,0,0,.18.58h0a1.89,1.89,0,0,0,.71.72.14.14,0,0,1,0,.2,6.27,6.27,0,0,1-1,1.2.15.15,0,0,1-.19,0,3.58,3.58,0,0,1-1.5-2.23h-.85a4.37,4.37,0,0,0,.16.69A.19.19,0,0,1,51.76,68.77Z"/><path class="cls-4" d="M49.48,68.4l.49-.5H43.05a12,12,0,0,0,1,4.73h4.82A3.71,3.71,0,0,1,49.48,68.4Z"/><path class="cls-4" d="M43.48,64.72H49.6V57.15A12.13,12.13,0,0,0,43.48,64.72Z"/><path class="cls-3" d="M59.88,65.5v0a7,7,0,0,1-1.25,4v0s0,0,0,0l2.16-2.21a3.64,3.64,0,0,0,0-5.11,3.72,3.72,0,0,0-.93-.67V64A1.74,1.74,0,0,1,59.88,65.5Z"/><path class="cls-3" d="M54.22,67.41a1.68,1.68,0,0,1,0-.63h0a3,3,0,0,1,.9-1.28V62.79l-1.73,1.77h0a3.65,3.65,0,0,0-.92,3.33h.3A2.31,2.31,0,0,0,54.22,67.41Z"/><path class="cls-3" d="M59.88,65.5a1.71,1.71,0,0,1-.33.48l-1,1a.16.16,0,0,0,0,.18,4.74,4.74,0,0,1,.13,2.34,7,7,0,0,0,1.25-4Z"/><path class="cls-3" d="M54,70.13a.15.15,0,0,0,.19,0,6.27,6.27,0,0,0,1-1.2.14.14,0,0,0,0-.2A1.89,1.89,0,0,1,54.4,68h0a2.05,2.05,0,0,1-.18-.58,2.31,2.31,0,0,1-1.43.49h-.3A3.58,3.58,0,0,0,54,70.13Z"/><path class="cls-3" d="M55.4,65.25h0l1.68-1.72a1.73,1.73,0,0,1,2.45,0,1.88,1.88,0,0,1,.35.5V61.6a3.63,3.63,0,0,0-4.24.69l-.49.5V65.5C55.24,65.42,55.32,65.33,55.4,65.25Z"/><path class="cls-3" d="M52.69,72.63a1.76,1.76,0,0,1-1.42,0H48.83a3.58,3.58,0,0,0,.68.93,3.64,3.64,0,0,0,5.14,0c.3-.34,1.25-1.24,2-2a7.08,7.08,0,0,1-3.83,1.13Z"/><path class="cls-3" d="M51.65,66.24s0,0,0,0L50,67.9h1.67A4.86,4.86,0,0,1,51.65,66.24Z"/><path class="cls-3" d="M57.46,70.44h0a3.74,3.74,0,0,0,.32-2.65h0a3.66,3.66,0,0,0-1.47-2.1.19.19,0,0,0-.23,0,3.46,3.46,0,0,0-1,1.18.16.16,0,0,0,.06.21,1.84,1.84,0,0,1,.7.71h0a1.7,1.7,0,0,1,.18,1.1h0c-.08.6-.69,1.15-1.17,1.64h0c-.36.38-1.3,1.33-1.67,1.71a1.88,1.88,0,0,1-.53.37h.1a7.08,7.08,0,0,0,3.83-1.13,5.14,5.14,0,0,0,.84-1.06Z"/><path class="cls-3" d="M48.83,72.63h2.44a1.69,1.69,0,0,1-.51-.34,1.75,1.75,0,0,1,0-2.47l1-1a.19.19,0,0,0,0-.18,4.37,4.37,0,0,1-.16-.69H50l-.49.5A3.71,3.71,0,0,0,48.83,72.63Z"/></svg>