<svg id="Layer_1" data-name="Layer 1" xmlns="http://www.w3.org/2000/svg" viewBox="0 0 68 80"><defs><style>.cls-1{fill:none;}.cls-2{fill:#004884;}.cls-3{fill:#fff;}.cls-4{fill:#36c;}</style></defs><path class="cls-1" d="M15.4,67.9H56.47a2.37,2.37,0,0,0,2.37-2.36V20.24h-10a5.55,5.55,0,0,1-5.55-5.56V4.73H15.4A2.37,2.37,0,0,0,13,7.09V39H53.29V64.72H13v.82A2.37,2.37,0,0,0,15.4,67.9ZM38.92,30.19a2.58,2.58,0,0,1-2.83.7,6,6,0,0,1-2.31-1.31c-.66-.59-1.31-1.21-1.94-1.84a.87.87,0,0,0-.75-.28,28.6,28.6,0,0,0-5.51.94.73.73,0,0,0-.51.41,21.13,21.13,0,0,1-3.24,4.86,5.82,5.82,0,0,1-1.2,1A1.76,1.76,0,0,1,18,33.76a2.52,2.52,0,0,1,.12-2.52,8.71,8.71,0,0,1,1.26-1.51,12.46,12.46,0,0,1,4.4-2.48.74.74,0,0,0,.47-.43c.72-1.72,1.46-3.43,2.2-5.14a.53.53,0,0,0-.06-.53A8.87,8.87,0,0,1,24.91,16a4.45,4.45,0,0,1,.68-2.32,1.9,1.9,0,0,1,3.19-.2,3.36,3.36,0,0,1,.74,2.56,19.18,19.18,0,0,1-1,4.68.7.7,0,0,0,.12.8q1.69,2,3.37,4a.6.6,0,0,0,.53.22c.26,0,.53,0,.8,0a13.34,13.34,0,0,1,4.25.66,5.11,5.11,0,0,1,1,.5A2,2,0,0,1,38.92,30.19Z"/><path class="cls-1" d="M26.27,26.46,30,25.84l-2.28-2.71C27.2,24.25,26.73,25.35,26.27,26.46Z"/><path class="cls-1" d="M27.15,19.15l.09,0a13.21,13.21,0,0,0,.61-3.41,2,2,0,0,0-.13-.77c-.09-.21-.31-.35-.47-.53a2.22,2.22,0,0,0-.43.55,4.61,4.61,0,0,0-.1,2.75C26.83,18.2,27,18.67,27.15,19.15Z"/><path class="cls-1" d="M37.59,28.25a8.45,8.45,0,0,0-3.56-.8l0,.08a8.77,8.77,0,0,0,1,.86,10.31,10.31,0,0,0,1.63.89A.89.89,0,0,0,37.73,29C38,28.67,38,28.46,37.59,28.25Z"/><path class="cls-1" d="M21.1,30.47A14.16,14.16,0,0,0,19.6,32a1,1,0,0,0-.12,1.08c.09.21.21.24.39.11a5.79,5.79,0,0,0,.55-.43,15.37,15.37,0,0,0,2.32-3.17l-.07-.08A15.94,15.94,0,0,0,21.1,30.47Z"/><path class="cls-2" d="M58.84,65.54a2.37,2.37,0,0,1-2.37,2.36H15.4A2.37,2.37,0,0,1,13,65.54v-.82H8.31v.82a7.09,7.09,0,0,0,7.09,7.09H56.47a7.09,7.09,0,0,0,7.09-7.09V20.24H58.84Z"/><path class="cls-2" d="M13,7.09A2.37,2.37,0,0,1,15.4,4.73H43.33V0H15.4A7.08,7.08,0,0,0,8.31,7.09V39H13Z"/><path class="cls-2" d="M43.33,14.68a5.55,5.55,0,0,0,5.55,5.56h10V13.47L50.09,4.73H43.33Z"/><polygon class="cls-2" points="63.56 20.23 63.56 18.2 58.84 13.47 58.84 20.23 63.56 20.23"/><polygon class="cls-2" points="50.09 4.73 45.37 0 43.33 0 43.33 4.73 50.09 4.73"/><polygon class="cls-2" points="8.3 38.97 4.43 38.97 4.43 42.6 4.43 61.49 4.43 64.72 8.3 64.72 8.3 38.97"/><path class="cls-2" d="M22.33,50.83c0-1.13-.74-1.8-2.2-1.8H18.18v3.59h1.95C21.59,52.62,22.33,52,22.33,50.83Z"/><path class="cls-2" d="M53.29,64.72V39H13V54.73a1.36,1.36,0,0,1,1,1.36,1.41,1.41,0,0,1-1,1.39v7.24H53.29ZM38.65,47.08h7.82V49H41.05v2.73h4.78v1.93H41.05v3.76h-2.4Zm-12.2,0h4.7c3.38,0,5.7,2,5.7,5.17s-2.32,5.17-5.7,5.17h-4.7Zm-10.66,0h4.47c2.76,0,4.49,1.43,4.49,3.75S23,54.57,20.26,54.57H18.18v2.85H15.79Z"/><path class="cls-2" d="M34.43,52.25a3.09,3.09,0,0,0-3.4-3.2H28.84v6.41H31A3.09,3.09,0,0,0,34.43,52.25Z"/><path class="cls-2" d="M13,64.72V57.48a1.35,1.35,0,0,1-.41.06,1.41,1.41,0,0,1-1.43-1.45,1.38,1.38,0,0,1,1.43-1.42,1.76,1.76,0,0,1,.41.06V39H8.31V64.72Z"/><path class="cls-3" d="M14.06,56.09a1.36,1.36,0,0,0-1-1.36v2.75A1.41,1.41,0,0,0,14.06,56.09Z"/><path class="cls-3" d="M12.62,54.67a1.38,1.38,0,0,0-1.43,1.42,1.41,1.41,0,0,0,1.43,1.45,1.35,1.35,0,0,0,.41-.06V54.73A1.76,1.76,0,0,0,12.62,54.67Z"/><path class="cls-3" d="M18.18,54.57h2.08c2.76,0,4.49-1.43,4.49-3.74S23,47.08,20.26,47.08H15.79V57.42h2.39Zm0-5.54h1.95c1.46,0,2.2.67,2.2,1.8s-.74,1.79-2.2,1.79H18.18Z"/><path class="cls-3" d="M36.85,52.25c0-3.13-2.32-5.17-5.7-5.17h-4.7V57.42h4.7C34.53,57.42,36.85,55.38,36.85,52.25Zm-8,3.21V49.05H31a3.21,3.21,0,1,1,0,6.41Z"/><polygon class="cls-3" points="41.05 53.66 45.83 53.66 45.83 51.73 41.05 51.73 41.05 49 46.47 49 46.47 47.08 38.65 47.08 38.65 57.42 41.05 57.42 41.05 53.66"/><path class="cls-4" d="M38.56,26.9a5.11,5.11,0,0,0-1-.5,13.34,13.34,0,0,0-4.25-.66c-.27,0-.54,0-.8,0a.6.6,0,0,1-.53-.22q-1.68-2-3.37-4a.7.7,0,0,1-.12-.8,19.18,19.18,0,0,0,1-4.68,3.36,3.36,0,0,0-.74-2.56,1.9,1.9,0,0,0-3.19.2A4.45,4.45,0,0,0,24.91,16a8.87,8.87,0,0,0,1.45,5.12.53.53,0,0,1,.06.53c-.74,1.71-1.48,3.42-2.2,5.14a.74.74,0,0,1-.47.43,12.46,12.46,0,0,0-4.4,2.48,8.71,8.71,0,0,0-1.26,1.51A2.52,2.52,0,0,0,18,33.76a1.76,1.76,0,0,0,2.66.87,5.82,5.82,0,0,0,1.2-1,21.13,21.13,0,0,0,3.24-4.86.73.73,0,0,1,.51-.41,28.6,28.6,0,0,1,5.51-.94.87.87,0,0,1,.75.28c.63.63,1.28,1.25,1.94,1.84a6,6,0,0,0,2.31,1.31,2.58,2.58,0,0,0,2.83-.7A2,2,0,0,0,38.56,26.9ZM20.42,32.73a5.79,5.79,0,0,1-.55.43c-.18.13-.3.1-.39-.11A1,1,0,0,1,19.6,32a14.16,14.16,0,0,1,1.5-1.5,15.94,15.94,0,0,1,1.57-1l.07.08A15.37,15.37,0,0,1,20.42,32.73ZM26.82,15a2.22,2.22,0,0,1,.43-.55c.16.18.38.32.47.53a2,2,0,0,1,.13.77,13.21,13.21,0,0,1-.61,3.41l-.09,0c-.14-.48-.32-.95-.43-1.43A4.61,4.61,0,0,1,26.82,15Zm-.55,11.49c.46-1.11.93-2.21,1.41-3.33L30,25.84ZM37.73,29a.89.89,0,0,1-1.12.27A10.31,10.31,0,0,1,35,28.39a8.77,8.77,0,0,1-1-.86l0-.08a8.45,8.45,0,0,1,3.56.8C38,28.46,38,28.67,37.73,29Z"/></svg>