<svg id="Layer_1" data-name="Layer 1" xmlns="http://www.w3.org/2000/svg" viewBox="0 0 68 80"><defs><style>.cls-1{fill:none;}.cls-2{fill:#004884;}.cls-3{fill:#fff;}.cls-4{fill:#36c;}</style></defs><path class="cls-1" d="M43.33,14.68V4.73H15.4A2.37,2.37,0,0,0,13,7.09V31H37.29a1.53,1.53,0,1,1,0,3.06H13v5H53.29V64.72H13v.82A2.37,2.37,0,0,0,15.4,67.9H56.47a2.37,2.37,0,0,0,2.37-2.36V20.24h-10A5.55,5.55,0,0,1,43.33,14.68Zm-17.84,13a8,8,0,0,1-.44-16v8.18c0,.19,0,.24.24.24h8.16A8,8,0,0,1,25.49,27.66ZM34.18,18H27.32c-.13,0-.21,0-.21-.18q0-3.48,0-7a.76.76,0,0,1,0-.14A8.11,8.11,0,0,1,34.37,18Z"/><path class="cls-2" d="M13,34V7.09A2.37,2.37,0,0,1,15.4,4.73H43.33V0H15.4A7.08,7.08,0,0,0,8.31,7.09V39H13Z"/><path class="cls-2" d="M58.84,65.54a2.37,2.37,0,0,1-2.37,2.36H15.4A2.37,2.37,0,0,1,13,65.54v-.82H8.31v.82a7.09,7.09,0,0,0,7.09,7.09H56.47a7.09,7.09,0,0,0,7.09-7.09V20.24H58.84Z"/><path class="cls-2" d="M43.33,14.68a5.55,5.55,0,0,0,5.55,5.56h10V13.47L50.09,4.73H43.33Z"/><polygon class="cls-2" points="58.84 20.23 63.56 20.23 63.56 18.2 58.84 13.47 58.84 20.23"/><polygon class="cls-2" points="50.09 4.73 45.37 0 43.33 0 43.33 4.73 50.09 4.73"/><polygon class="cls-2" points="4.43 38.97 4.43 42.6 4.43 61.49 4.43 64.72 8.3 64.72 8.3 38.97 4.43 38.97"/><path class="cls-2" d="M53.29,64.72V39H13V54.89a1.51,1.51,0,0,1,.79-.22,1.38,1.38,0,0,1,1.43,1.42,1.4,1.4,0,0,1-1.43,1.45,1.43,1.43,0,0,1-.79-.23v7.41H53.29ZM36.87,47.08h9v2H42.57v8.39h-2.4V49h-3.3Zm-9.22,0h4.47c2.77,0,4.49,1.43,4.49,3.75s-1.72,3.74-4.49,3.74H30v2.85H27.65ZM17,47.08h4.48c2.76,0,4.49,1.43,4.49,3.75s-1.73,3.74-4.49,3.74H19.37v2.85H17Z"/><path class="cls-2" d="M23.53,50.83c0-1.13-.74-1.8-2.21-1.8H19.37v3.59h1.95C22.79,52.62,23.53,52,23.53,50.83Z"/><path class="cls-2" d="M34.19,50.83c0-1.13-.74-1.8-2.2-1.8H30v3.59H32C33.45,52.62,34.19,52,34.19,50.83Z"/><path class="cls-2" d="M13,57.31a1.41,1.41,0,0,1-.64-1.22,1.36,1.36,0,0,1,.64-1.2V39H8.31V64.72H13Z"/><path class="cls-3" d="M15.25,56.09a1.38,1.38,0,0,0-1.43-1.42,1.51,1.51,0,0,0-.79.22v2.42a1.43,1.43,0,0,0,.79.23A1.4,1.4,0,0,0,15.25,56.09Z"/><path class="cls-3" d="M12.39,56.09A1.41,1.41,0,0,0,13,57.31V54.89A1.36,1.36,0,0,0,12.39,56.09Z"/><path class="cls-3" d="M19.37,54.57h2.09c2.76,0,4.49-1.43,4.49-3.74s-1.73-3.75-4.49-3.75H17V57.42h2.39Zm0-5.54h1.95c1.47,0,2.21.67,2.21,1.8s-.74,1.79-2.21,1.79H19.37Z"/><path class="cls-3" d="M30,54.57h2.08c2.77,0,4.49-1.43,4.49-3.74s-1.72-3.75-4.49-3.75H27.65V57.42H30ZM30,49H32c1.46,0,2.2.67,2.2,1.8s-.74,1.79-2.2,1.79H30Z"/><polygon class="cls-3" points="40.17 57.42 42.57 57.42 42.57 49.03 45.88 49.03 45.88 47.08 36.87 47.08 36.87 49.03 40.17 49.03 40.17 57.42"/><path class="cls-4" d="M38.82,32.48A1.53,1.53,0,0,0,37.29,31H13V34H37.29A1.53,1.53,0,0,0,38.82,32.48Z"/><path class="cls-4" d="M25.29,20.06c-.2,0-.24,0-.24-.24V11.64a8,8,0,1,0,8.4,8.42H25.29Z"/><path class="cls-4" d="M27.13,10.7a.76.76,0,0,0,0,.14q0,3.5,0,7c0,.17.08.18.21.18h7A8.11,8.11,0,0,0,27.13,10.7Z"/></svg>