<svg id="Layer_1" data-name="Layer 1" xmlns="http://www.w3.org/2000/svg" viewBox="0 0 68 80"><defs><style>.cls-1{fill:none;}.cls-2{fill:#004884;}.cls-3{fill:#36c;}.cls-4{fill:#fff;}</style></defs><path class="cls-1" d="M53.29,64.75H13.81v.82a2.37,2.37,0,0,0,2.37,2.36h40.3a2.37,2.37,0,0,0,2.37-2.36V7.09a2.37,2.37,0,0,0-2.37-2.36H16.18a2.37,2.37,0,0,0-2.37,2.36V39H53.29ZM44,23.84l-13.17,7.6a1.48,1.48,0,0,1-2.22-1.28V15a1.48,1.48,0,0,1,2.22-1.28L44,21.28A1.47,1.47,0,0,1,44,23.84Z"/><path class="cls-2" d="M56.48,0H16.18a7.1,7.1,0,0,0-7.1,7.09V39h4.73V7.09a2.37,2.37,0,0,1,2.37-2.36h40.3a2.37,2.37,0,0,1,2.37,2.36V65.57a2.37,2.37,0,0,1-2.37,2.36H16.18a2.37,2.37,0,0,1-2.37-2.36v-.82H9.08v.82a7.1,7.1,0,0,0,7.1,7.09h40.3a7.1,7.1,0,0,0,7.1-7.09V7.09A7.1,7.1,0,0,0,56.48,0Z"/><path class="cls-3" d="M44,21.28l-13.17-7.6A1.48,1.48,0,0,0,28.56,15v15.2a1.48,1.48,0,0,0,2.22,1.28L44,23.84A1.47,1.47,0,0,0,44,21.28Z"/><polygon class="cls-2" points="8.13 47.97 9.08 47.97 9.08 38.99 8.29 38.99 4.42 38.99 4.42 42.62 4.42 61.52 4.42 64.75 8.29 64.75 9.08 64.75 9.08 50.18 8.13 47.97"/><path class="cls-2" d="M15.54,48h2l-3.71,8.56v8.22H53.29V39H13.81V52Zm29.22-.15a4.45,4.45,0,1,1,0,8.89,4.45,4.45,0,1,1,0-8.89ZM32.39,48h6.49v1.6H34.36v1.86h4V53h-4v2H39v1.59H32.39ZM22.25,48h3.91c2.81,0,4.73,1.69,4.73,4.3S29,56.56,26.16,56.56H22.25Zm-4,0h2v8.59h-2Z"/><path class="cls-2" d="M44.76,55a2.75,2.75,0,1,0-2.69-2.74A2.62,2.62,0,0,0,44.76,55Z"/><path class="cls-2" d="M28.88,52.27a2.57,2.57,0,0,0-2.82-2.67H24.24v5.33h1.82A2.56,2.56,0,0,0,28.88,52.27Z"/><polygon class="cls-2" points="13.81 64.75 13.81 56.53 13.8 56.56 11.83 56.56 9.08 50.18 9.08 64.75 13.03 64.75 13.81 64.75"/><polygon class="cls-2" points="10.28 47.97 12.89 54.11 13.81 51.97 13.81 38.99 13.03 38.99 9.08 38.99 9.08 47.97 10.28 47.97"/><polygon class="cls-4" points="15.54 47.97 13.81 51.97 13.81 56.53 17.52 47.97 15.54 47.97"/><polygon class="cls-4" points="8.13 47.97 9.08 50.18 9.08 47.97 8.13 47.97"/><polygon class="cls-4" points="12.89 54.11 10.28 47.97 9.08 47.97 9.08 50.18 11.83 56.56 13.8 56.56 13.81 56.53 13.81 51.97 12.89 54.11"/><rect class="cls-4" x="18.23" y="47.97" width="1.99" height="8.59"/><path class="cls-4" d="M30.89,52.27c0-2.61-1.92-4.3-4.73-4.3H22.25v8.59h3.91C29,56.56,30.89,54.87,30.89,52.27Zm-6.65,2.66V49.6h1.82a2.67,2.67,0,1,1,0,5.33Z"/><polygon class="cls-4" points="39.04 54.97 34.36 54.97 34.36 52.98 38.35 52.98 38.35 51.43 34.36 51.43 34.36 49.57 38.88 49.57 38.88 47.97 32.39 47.97 32.39 56.56 39.04 56.56 39.04 54.97"/><path class="cls-4" d="M44.76,56.71a4.45,4.45,0,1,0,0-8.89,4.45,4.45,0,1,0,0,8.89Zm0-7.19a2.75,2.75,0,1,1-2.69,2.75A2.62,2.62,0,0,1,44.76,49.52Z"/></svg>