<svg id="Layer_1" data-name="Layer 1" xmlns="http://www.w3.org/2000/svg" viewBox="0 0 68 80"><defs><style>.cls-1{fill:none;}.cls-2{fill:#36c;}.cls-3{fill:#004884;}.cls-4{fill:#fff;}</style></defs><path class="cls-1" d="M43.2,14.68V4.73H15.26A2.36,2.36,0,0,0,12.9,7.09v7.15h9.21V17.3H12.9v2.57h9.21v3.07H12.9v2.37h9.21v3.07H12.9V31h9.21V34H12.9v5H53.42V64.72H12.9v.82a2.36,2.36,0,0,0,2.36,2.36H56.34a2.36,2.36,0,0,0,2.36-2.36V20.24h-10A5.55,5.55,0,0,1,43.2,14.68ZM34,34H24.38V31H34Zm0-5.63H24.38V25.31H34Zm0-5.44H24.38V19.87H34Zm0-5.64H24.38V14.24H34Z"/><rect class="cls-2" x="24.38" y="30.95" width="9.62" height="3.06"/><rect class="cls-2" x="12.9" y="30.95" width="9.21" height="3.06"/><rect class="cls-2" x="24.38" y="25.31" width="9.62" height="3.06"/><rect class="cls-2" x="12.9" y="25.31" width="9.21" height="3.06"/><rect class="cls-2" x="24.38" y="19.87" width="9.62" height="3.06"/><rect class="cls-2" x="12.9" y="19.87" width="9.21" height="3.06"/><rect class="cls-2" x="24.38" y="14.24" width="9.62" height="3.06"/><rect class="cls-2" x="12.9" y="14.24" width="9.21" height="3.06"/><path class="cls-3" d="M58.7,65.54a2.36,2.36,0,0,1-2.36,2.36H15.26a2.36,2.36,0,0,1-2.36-2.36v-.82H8.17v.82a7.1,7.1,0,0,0,7.09,7.09H56.34a7.09,7.09,0,0,0,7.09-7.09V20.24H58.7Z"/><path class="cls-3" d="M12.9,39V34h-.41V31h.41V28.38h-.41V25.31h.41V22.94h-.41V19.87h.41V17.3h-.41V14.24h.41V7.09a2.36,2.36,0,0,1,2.36-2.36H43.2V0H15.26A7.09,7.09,0,0,0,8.17,7.09V39H12.9Z"/><rect class="cls-3" x="12.49" y="30.95" width="0.41" height="3.06"/><rect class="cls-3" x="12.49" y="25.31" width="0.41" height="3.06"/><rect class="cls-3" x="12.49" y="19.87" width="0.41" height="3.06"/><rect class="cls-3" x="12.49" y="14.24" width="0.41" height="3.06"/><path class="cls-3" d="M43.2,14.68a5.55,5.55,0,0,0,5.55,5.56h10V13.47L50,4.73H43.2Z"/><polygon class="cls-3" points="58.7 20.23 63.43 20.23 63.43 18.2 58.7 13.47 58.7 20.23"/><polygon class="cls-3" points="49.96 4.73 45.23 0 43.2 0 43.2 4.73 49.96 4.73"/><polygon class="cls-3" points="4.57 38.97 4.57 42.6 4.57 61.49 4.57 64.72 8.17 64.72 8.17 38.97 4.57 38.97"/><path class="cls-3" d="M53.42,64.72V39H12.9V64.72H53.42ZM36.53,50.12c0-1.75,1.42-3.22,4.36-3.22a6.9,6.9,0,0,1,3.59.92l-.74,1.82a5.81,5.81,0,0,0-2.86-.82c-1.42,0-2,.54-2,1.19,0,1.9,6,.59,6,4.38,0,1.73-1.44,3.21-4.39,3.21a7.35,7.35,0,0,1-4.21-1.2l.81-1.8a6,6,0,0,0,3.41,1.08c1.42,0,2-.47,2-1.11C42.55,52.64,36.53,54,36.53,50.12Zm-8.25-3h2.39v8.39h5.19v2H28.28Zm-11.22,0h2.72l2.38,3.35,2.33-3.35h2.59l-3.6,5,3.85,5.35H24.57l-2.5-3.59-2.45,3.59H16.87l3.83-5.26Zm-2.17,7.59a1.39,1.39,0,0,1,1.44,1.42,1.44,1.44,0,1,1-2.87,0A1.38,1.38,0,0,1,14.89,54.67Z"/><polygon class="cls-3" points="12.9 64.72 12.9 38.97 8.44 38.97 8.17 38.97 8.17 64.72 8.44 64.72 12.9 64.72"/><path class="cls-4" d="M14.89,57.54a1.41,1.41,0,0,0,1.44-1.45,1.44,1.44,0,0,0-2.87,0A1.4,1.4,0,0,0,14.89,57.54Z"/><polygon class="cls-4" points="19.62 57.42 22.07 53.83 24.57 57.42 27.33 57.42 23.48 52.08 27.08 47.08 24.5 47.08 22.16 50.44 19.78 47.08 17.06 47.08 20.7 52.16 16.87 57.42 19.62 57.42"/><polygon class="cls-4" points="35.85 55.47 30.67 55.47 30.67 47.08 28.28 47.08 28.28 57.42 35.85 57.42 35.85 55.47"/><path class="cls-4" d="M40.55,55.68a6,6,0,0,1-3.41-1.08l-.81,1.8a7.35,7.35,0,0,0,4.21,1.2c3,0,4.39-1.48,4.39-3.21,0-3.79-6-2.48-6-4.38,0-.65.55-1.19,2-1.19a5.81,5.81,0,0,1,2.86.82l.74-1.82a6.9,6.9,0,0,0-3.59-.92c-2.94,0-4.36,1.47-4.36,3.22,0,3.85,6,2.52,6,4.45C42.55,55.21,42,55.68,40.55,55.68Z"/></svg>