<svg id="Layer_1" data-name="Layer 1" xmlns="http://www.w3.org/2000/svg" viewBox="0 0 68 80"><defs><style>.cls-1{fill:none;}.cls-2{fill:#36c;}.cls-3{fill:#004884;}.cls-4{fill:#fff;}</style></defs><path class="cls-1" d="M49.73,39V53.81a15,15,0,0,1,5.29-1V20.24h-10a5.56,5.56,0,0,1-5.55-5.56V4.73H11.58A2.37,2.37,0,0,0,9.21,7.09v7.15h9.21V17.3H9.21v2.57h9.21v3.07H9.21v2.37h9.21v3.07H9.21V31h9.21V34H9.21v5H49.73Zm-29-24.73h9.62V17.3H20.69Zm0,5.63h9.62v3.07H20.69Zm0,5.44h9.62v3.07H20.69Zm0,5.64h9.62V34H20.69Z"/><path class="cls-1" d="M40.31,64.72H9.21v.82a2.37,2.37,0,0,0,2.37,2.36H40A14.55,14.55,0,0,1,40.31,64.72Z"/><rect class="cls-2" x="20.69" y="30.95" width="9.62" height="3.06"/><rect class="cls-2" x="9.21" y="30.95" width="9.21" height="3.06"/><rect class="cls-2" x="20.69" y="25.31" width="9.62" height="3.06"/><rect class="cls-2" x="9.21" y="25.31" width="9.21" height="3.06"/><rect class="cls-2" x="20.69" y="19.87" width="9.62" height="3.06"/><rect class="cls-2" x="9.21" y="19.87" width="9.21" height="3.06"/><rect class="cls-2" x="20.69" y="14.24" width="9.62" height="3.06"/><rect class="cls-2" x="9.21" y="14.24" width="9.21" height="3.06"/><path class="cls-3" d="M9.21,39V34h-.4V31h.4V28.38h-.4V25.31h.4V22.94h-.4V19.87h.4V17.3h-.4V14.24h.4V7.09a2.37,2.37,0,0,1,2.37-2.36H39.51V0H11.58A7.08,7.08,0,0,0,4.49,7.09V39H9.21Z"/><path class="cls-3" d="M55,52.85h0a15.12,15.12,0,0,1,4.73.76V20.24H55Z"/><path class="cls-3" d="M11.58,67.9a2.37,2.37,0,0,1-2.37-2.36v-.82H4.49v.82a7.09,7.09,0,0,0,7.09,7.09H40.73A15.12,15.12,0,0,1,40,67.9Z"/><rect class="cls-3" x="8.81" y="30.95" width="0.41" height="3.06"/><rect class="cls-3" x="8.81" y="25.31" width="0.41" height="3.06"/><rect class="cls-3" x="8.81" y="19.87" width="0.41" height="3.06"/><rect class="cls-3" x="8.81" y="14.24" width="0.41" height="3.06"/><path class="cls-3" d="M39.51,14.68a5.56,5.56,0,0,0,5.55,5.56H55V13.47L46.28,4.73H39.51Z"/><polygon class="cls-3" points="59.75 20.23 59.75 18.2 55.02 13.47 55.02 20.23 59.75 20.23"/><polygon class="cls-3" points="46.28 4.73 41.55 0 39.51 0 39.51 4.73 46.28 4.73"/><polygon class="cls-3" points="0.88 38.97 0.88 42.6 0.88 61.49 0.88 64.72 4.49 64.72 4.49 38.97 0.88 38.97"/><path class="cls-3" d="M40.31,64.72a15.09,15.09,0,0,1,9.42-10.91V39H9.21V64.72h31.1Zm-7.46-14.6c0-1.75,1.42-3.22,4.36-3.22a6.9,6.9,0,0,1,3.59.92l-.74,1.82a5.82,5.82,0,0,0-2.87-.82c-1.42,0-2,.54-2,1.19,0,1.9,6,.59,6,4.38,0,1.73-1.43,3.21-4.39,3.21a7.37,7.37,0,0,1-4.21-1.2l.81-1.8a6.09,6.09,0,0,0,3.42,1.08c1.41,0,2-.47,2-1.11C38.86,52.64,32.85,54,32.85,50.12Zm-8.26-3H27v8.39h5.19v2H24.59Zm-11.21,0H16.1l2.37,3.35,2.34-3.35h2.58l-3.6,5,3.86,5.35H20.88l-2.49-3.59-2.46,3.59H13.19L17,52.16Zm-2.17,7.59a1.38,1.38,0,0,1,1.43,1.42,1.44,1.44,0,1,1-2.87,0A1.39,1.39,0,0,1,11.21,54.67Z"/><polygon class="cls-3" points="9.21 64.72 9.21 38.97 4.75 38.97 4.49 38.97 4.49 64.72 4.75 64.72 9.21 64.72"/><path class="cls-4" d="M11.21,57.54a1.41,1.41,0,0,0,1.43-1.45,1.44,1.44,0,0,0-2.87,0A1.41,1.41,0,0,0,11.21,57.54Z"/><polygon class="cls-4" points="15.93 57.42 18.39 53.83 20.88 57.42 23.64 57.42 19.79 52.08 23.39 47.08 20.81 47.08 18.48 50.44 16.1 47.08 13.38 47.08 17.01 52.16 13.19 57.42 15.93 57.42"/><polygon class="cls-4" points="32.17 55.47 26.98 55.47 26.98 47.08 24.59 47.08 24.59 57.42 32.17 57.42 32.17 55.47"/><path class="cls-4" d="M36.87,55.68a6.09,6.09,0,0,1-3.42-1.08l-.81,1.8a7.37,7.37,0,0,0,4.21,1.2c3,0,4.39-1.48,4.39-3.21,0-3.79-6-2.48-6-4.38,0-.65.54-1.19,2-1.19a5.82,5.82,0,0,1,2.87.82l.74-1.82a6.9,6.9,0,0,0-3.59-.92c-2.94,0-4.36,1.47-4.36,3.22,0,3.85,6,2.52,6,4.45C38.86,55.21,38.28,55.68,36.87,55.68Z"/><path class="cls-2" d="M52.55,72.63H51.14A1.73,1.73,0,0,0,52.55,72.63Z"/><path class="cls-2" d="M60.67,62.27a3.64,3.64,0,0,1,0,5.11l-2.17,2.21s0,0,0,0v0a7,7,0,0,1-2,2c-.71.77-1.66,1.67-2,2a3.64,3.64,0,0,1-5.14,0,3.55,3.55,0,0,1-.67-.93H43.88A12.1,12.1,0,1,0,59.75,56.76V61.6A3.67,3.67,0,0,1,60.67,62.27Z"/><path class="cls-2" d="M54.12,66.78a1.68,1.68,0,0,0,0,.63A2.36,2.36,0,0,0,55,65.54v0a2.93,2.93,0,0,0-.9,1.28Z"/><path class="cls-2" d="M49.73,64.72H43.34a12.38,12.38,0,0,0-.42,3.18h6.91l1.65-1.68s0,0,0,0a4.86,4.86,0,0,0,0,1.66h.85a3.65,3.65,0,0,1,.92-3.33h0L55,62.79v-7A12,12,0,0,0,49.73,57Z"/><path class="cls-2" d="M55.51,62.29a3.63,3.63,0,0,1,4.24-.69V56.76a12,12,0,0,0-4.73-1h0v7Z"/><path class="cls-2" d="M49.35,68.4l.48-.5H42.92a12,12,0,0,0,1,4.73H48.7A3.69,3.69,0,0,1,49.35,68.4Z"/><path class="cls-2" d="M51.62,68.77l-1,1a1.75,1.75,0,0,0,0,2.47,1.57,1.57,0,0,0,.51.34h1.41a1.79,1.79,0,0,0,.54-.37l1.67-1.71h0c.48-.49,1.09-1,1.17-1.64h0a1.7,1.7,0,0,0-.18-1.1h0a1.84,1.84,0,0,0-.7-.71.16.16,0,0,1-.06-.21,3.46,3.46,0,0,1,1-1.18.18.18,0,0,1,.22,0,3.63,3.63,0,0,1,1.48,2.1h0a3.79,3.79,0,0,1-.32,2.65h0a4.94,4.94,0,0,1-.85,1.06,7,7,0,0,0,2-2,4.86,4.86,0,0,0-.14-2.34.2.2,0,0,1,0-.18l1-1a1.71,1.71,0,0,0,.33-.48V64a1.88,1.88,0,0,0-.35-.5,1.73,1.73,0,0,0-2.45,0l-1.69,1.72h0L55,65.5v0a2.36,2.36,0,0,1-.93,1.87,2.05,2.05,0,0,0,.18.58h0a1.86,1.86,0,0,0,.7.72.14.14,0,0,1,.06.2,6,6,0,0,1-1,1.2.15.15,0,0,1-.19,0,3.56,3.56,0,0,1-1.49-2.23h-.85a3.5,3.5,0,0,0,.15.69A.17.17,0,0,1,51.62,68.77Z"/><path class="cls-2" d="M49.73,57a12.16,12.16,0,0,0-6.39,7.7h6.39Z"/><path class="cls-4" d="M59.75,65.5v0a7,7,0,0,1-1.25,4v0s0,0,0,0l2.17-2.21a3.64,3.64,0,0,0-1-5.78V64A1.78,1.78,0,0,1,59.75,65.5Z"/><path class="cls-4" d="M54.09,67.41a1.68,1.68,0,0,1,0-.63h0A2.93,2.93,0,0,1,55,65.5V62.79l-1.73,1.77h0a3.65,3.65,0,0,0-.92,3.33h.29A2.34,2.34,0,0,0,54.09,67.41Z"/><path class="cls-4" d="M55.27,65.25h0L57,63.53a1.73,1.73,0,0,1,2.45,0,1.88,1.88,0,0,1,.35.5V61.6a3.63,3.63,0,0,0-4.24.69l-.49.5V65.5Z"/><path class="cls-4" d="M59.75,65.5a1.71,1.71,0,0,1-.33.48l-1,1a.2.2,0,0,0,0,.18,4.86,4.86,0,0,1,.14,2.34,7,7,0,0,0,1.25-4Z"/><path class="cls-4" d="M53.85,70.13a.15.15,0,0,0,.19,0,6,6,0,0,0,1-1.2.14.14,0,0,0-.06-.2,1.86,1.86,0,0,1-.7-.72h0a2.05,2.05,0,0,1-.18-.58,2.34,2.34,0,0,1-1.44.49h-.29A3.56,3.56,0,0,0,53.85,70.13Z"/><path class="cls-4" d="M52.55,72.63a1.73,1.73,0,0,1-1.41,0H48.7a3.55,3.55,0,0,0,.67.93,3.64,3.64,0,0,0,5.14,0c.31-.34,1.26-1.24,2-2a7,7,0,0,1-3.83,1.13Z"/><path class="cls-4" d="M51.52,66.24s0,0,0,0L49.83,67.9h1.68A4.86,4.86,0,0,1,51.52,66.24Z"/><path class="cls-4" d="M48.7,72.63h2.44a1.57,1.57,0,0,1-.51-.34,1.75,1.75,0,0,1,0-2.47l1-1a.17.17,0,0,0,0-.18,3.5,3.5,0,0,1-.15-.69H49.83l-.48.5A3.69,3.69,0,0,0,48.7,72.63Z"/><path class="cls-4" d="M57.33,70.44h0a3.79,3.79,0,0,0,.32-2.65h0a3.63,3.63,0,0,0-1.48-2.1.18.18,0,0,0-.22,0,3.46,3.46,0,0,0-1,1.18.16.16,0,0,0,.06.21,1.84,1.84,0,0,1,.7.71h0a1.7,1.7,0,0,1,.18,1.1h0c-.08.6-.69,1.15-1.17,1.64h0l-1.67,1.71a1.79,1.79,0,0,1-.54.37h.1a7,7,0,0,0,3.83-1.13,4.94,4.94,0,0,0,.85-1.06Z"/></svg>