<svg xmlns="http://www.w3.org/2000/svg" height="20" width="20"><path d="M.812 17.333v-3.625q0-.666.469-1.135t1.136-.469h2.812q.375 0 .677.156.302.157.511.448.625.896 1.562 1.396.938.5 2.021.5t2.021-.5q.937-.5 1.562-1.396.209-.291.511-.448.302-.156.677-.156h2.812q.667 0 1.146.469.479.469.479 1.135v3.625h-6.229v-1.916q-.646.437-1.427.625-.781.187-1.552.187t-1.531-.187q-.761-.188-1.427-.625v1.916ZM10 13.75q-.854 0-1.583-.396t-1.209-1.083q-.312-.438-.739-.688-.427-.25-.969-.291 1.042-.667 2.177-.99Q8.812 9.979 10 9.979t2.333.323q1.146.323 2.167.99-.542.041-.958.291-.417.25-.75.688-.48.687-1.209 1.083-.729.396-1.583.396Zm-6.5-2.854q-1.062 0-1.802-.74-.74-.739-.74-1.802 0-1.062.74-1.812t1.802-.75q1.062 0 1.802.75t.74 1.812q0 1.063-.74 1.802-.74.74-1.802.74Zm13 0q-1.062 0-1.802-.74-.74-.739-.74-1.802 0-1.062.74-1.812t1.802-.75q1.062 0 1.802.75t.74 1.812q0 1.063-.74 1.802-.74.74-1.802.74ZM10 8.792q-1.062 0-1.802-.75t-.74-1.813q0-1.041.74-1.791T10 3.688q1.062 0 1.802.75t.74 1.791q0 1.063-.74 1.813T10 8.792Z" style="fill:#004884;fill-opacity:1"/></svg>