<svg xmlns="http://www.w3.org/2000/svg" width="20" height="15" viewBox="0 0 20 15">
  <g id="folder-user" transform="translate(0 -64)">
    <g id="Grupo_13318" data-name="Grupo 13318" transform="translate(3.523 68.09)">
      <path id="Trazado_8432" data-name="Trazado 8432" d="M94.294,275.3a1.413,1.413,0,0,0-.473.09,1.954,1.954,0,0,1-1.289,0,1.517,1.517,0,0,0-.473-.09,1.864,1.864,0,0,0-1.859,1.859v.32a.792.792,0,0,0,.789.789h4.379a.792.792,0,0,0,.789-.789v-.32A1.865,1.865,0,0,0,94.294,275.3Z" 
      transform="translate(-90.2 -271.136)" 
      style="fill:#004884;fill-opacity:1"/>
      <path id="Trazado_8433" data-name="Trazado 8433" d="M117.78,172.661a1.98,1.98,0,1,0-1.98-1.98A1.983,1.983,0,0,0,117.78,172.661Z" 
      transform="translate(-114.8 -168.7)" 
      style="fill:#004884;fill-opacity:1"/>
    </g>
    <path id="Trazado_8434" data-name="Trazado 8434" d="M18.125,66.5h-7.5L8.492,64.367A1.248,1.248,0,0,0,7.609,64H1.875A1.875,1.875,0,0,0,0,65.875v11.25A1.875,1.875,0,0,0,1.875,79h16.25A1.875,1.875,0,0,0,20,77.125v-8.75A1.875,1.875,0,0,0,18.125,66.5Zm0,10.625H1.875V65.875H7.348L9.48,68.008a1.248,1.248,0,0,0,.883.367h7.762Z" 
    style="fill:#004884;fill-opacity:1"/>
  </g>
</svg>
