<svg id="GOV.CO" xmlns="http://www.w3.org/2000/svg" width="32.402" height="6.253" viewBox="0 0 32.402 6.253">
  <path id="Trazado_2304" data-name="Trazado 2304" d="M364.817,121.523a2.389,2.389,0,0,0-1.617-.642,2.157,2.157,0,0,0-2.207,2.318,2.038,2.038,0,0,0,2.207,2.156,2.139,2.139,0,0,0,1.463-.53V123.61h-1.668v-.855h2.558v2.455a3.014,3.014,0,0,1-2.352,1.044,2.89,2.89,0,0,1-3.148-3.054A3.014,3.014,0,0,1,363.2,120a3.149,3.149,0,0,1,2.216.907Z" transform="translate(-360.052 -120)" fill="#fff"/>
  <path id="Trazado_2305" data-name="Trazado 2305" d="M516.254,123.144a3.075,3.075,0,1,1-6.15.009A3.007,3.007,0,0,1,513.2,120,2.952,2.952,0,0,1,516.254,123.144Zm-3.075,2.225a2.015,2.015,0,0,0,2.122-2.207,2.111,2.111,0,0,0-2.1-2.285,2.249,2.249,0,0,0-.017,4.492Z" transform="translate(-503.848 -120)" fill="#fff"/>
  <path id="Trazado_2306" data-name="Trazado 2306" d="M664.768,126.692H663.73l-2.58-6.234h1.117l1.978,5.046,1.986-5.046h1.108Z" transform="translate(-648.597 -120.439)" fill="#fff"/>
  <path id="Trazado_2307" data-name="Trazado 2307" d="M796.379,240.609a.627.627,0,1,1-1.253,0A.627.627,0,0,1,796.379,240.609Z" transform="translate(-776.988 -234.985)" fill="#fff"/>
  <path id="Trazado_2308" data-name="Trazado 2308" d="M845.658,125.357a3.16,3.16,0,0,1-2.265.9,2.956,2.956,0,0,1-3.178-3.092A3.017,3.017,0,0,1,843.393,120a3.082,3.082,0,0,1,2.2.913l-.646.62a2.215,2.215,0,0,0-1.559-.62,2.114,2.114,0,0,0-2.222,2.239,2.081,2.081,0,0,0,2.222,2.2,2.337,2.337,0,0,0,1.6-.655Z" transform="translate(-820.197 -120)" fill="#fff"/>
  <path id="Trazado_2309" data-name="Trazado 2309" d="M996.339,123.592a3.066,3.066,0,1,1-6.131.009,3,3,0,0,1,3.083-3.143A2.943,2.943,0,0,1,996.339,123.592Zm-3.066,2.218a2.009,2.009,0,0,0,2.115-2.2,2.1,2.1,0,0,0-2.1-2.278,2.242,2.242,0,0,0-.017,4.478Z" transform="translate(-963.937 -120.439)" fill="#fff"/>
</svg>
