<svg height="20" width="20" xmlns="http://www.w3.org/2000/svg">
  <path
     d="m 18.309544,20 -7.026309,-7.015999 q -0.874615,0.610633 -1.9101592,0.975337 -1.0355443,0.363306 -2.2306185,0.363306 -2.9736916,0 -5.0573747,-2.095997 Q 0,10.13065 0,7.1613219 0,4.1919933 2.0850826,2.0959966 4.1687657,0 7.1424573,0 q 2.9736917,0 5.0727677,2.0959966 2.099077,2.0959967 2.099077,5.0653253 0,1.1933207 -0.349846,2.2273457 -0.349846,1.0326274 -0.961377,1.8780134 L 20,18.281283 Z M 7.1424573,11.877314 q 1.9829275,0 3.3683177,-1.367987 1.383991,-1.367987 1.383991,-3.3480051 0,-1.9800182 -1.383991,-3.3480053 -1.3853902,-1.3679872 -3.3683177,-1.3679872 -1.9815281,0 -3.3529247,1.3679872 -1.3699972,1.3679871 -1.3699972,3.3480053 0,1.9800181 1.3699972,3.3480051 1.3713966,1.367987 3.3529247,1.367987 z"
     id="path1"
     style="fill:#3366CC;fill-opacity:1;stroke-width:1.39836" />
</svg>
