<?xml version="1.0" encoding="UTF-8" standalone="no"?>
<svg
   height="20"
   width="20"
   version="1.1"
   id="svg4"
   sodipodi:docname="search_FILL0_wght500_GRAD0_opsz20.svg"
   inkscape:version="1.1.2 (b8e25be833, 2022-02-05)"
   xmlns:inkscape="http://www.inkscape.org/namespaces/inkscape"
   xmlns:sodipodi="http://sodipodi.sourceforge.net/DTD/sodipodi-0.dtd"
   xmlns="http://www.w3.org/2000/svg"
   xmlns:svg="http://www.w3.org/2000/svg">
  <defs
     id="defs8" />
  <sodipodi:namedview
     id="namedview6"
     pagecolor="#ffffff"
     bordercolor="#111111"
     borderopacity="1"
     inkscape:pageshadow="0"
     inkscape:pageopacity="0"
     inkscape:pagecheckerboard="1"
     showgrid="false"
     inkscape:zoom="12.975"
     inkscape:cx="15.183044"
     inkscape:cy="14.104046"
     inkscape:window-width="1366"
     inkscape:window-height="705"
     inkscape:window-x="-8"
     inkscape:window-y="-8"
     inkscape:window-maximized="1"
     inkscape:current-layer="svg4" />
  <path
     d="m 18.309544,20 -7.026309,-7.015999 q -0.874615,0.610633 -1.9101592,0.975337 -1.0355443,0.363306 -2.2306185,0.363306 -2.9736916,0 -5.0573747,-2.095997 Q 0,10.13065 0,7.1613219 0,4.1919933 2.0850826,2.0959966 4.1687657,0 7.1424573,0 q 2.9736917,0 5.0727677,2.0959966 2.099077,2.0959967 2.099077,5.0653253 0,1.1933207 -0.349846,2.2273457 -0.349846,1.0326274 -0.961377,1.8780134 L 20,18.281283 Z M 7.1424573,11.877314 q 1.9829275,0 3.3683177,-1.367987 1.383991,-1.367987 1.383991,-3.3480051 0,-1.9800182 -1.383991,-3.3480053 -1.3853902,-1.3679872 -3.3683177,-1.3679872 -1.9815281,0 -3.3529247,1.3679872 -1.3699972,1.3679871 -1.3699972,3.3480053 0,1.9800181 1.3699972,3.3480051 1.3713966,1.367987 3.3529247,1.367987 z"
     id="path2"
     style="fill:#bababa;fill-opacity:1;stroke-width:1.39836" />
</svg>
