<?xml version="1.0" encoding="utf-8"?>
<!-- Generator: Adobe Illustrator 26.0.2, SVG Export Plug-In . SVG Version: 6.00 Build 0)  -->
<svg version="1.1" id="Capa_1" xmlns="http://www.w3.org/2000/svg" xmlns:xlink="http://www.w3.org/1999/xlink" x="0px" y="0px"
	 viewBox="0 0 48 48" style="enable-background:new 0 0 48 48;" xml:space="preserve">
<style type="text/css">
	.st0{fill-rule:evenodd;clip-rule:evenodd;fill:#0193CF;}
	.st1{fill-rule:evenodd;clip-rule:evenodd;fill:#E31351;}
	.st2{fill-rule:evenodd;clip-rule:evenodd;fill:#FFC324;}
	.st3{fill-rule:evenodd;clip-rule:evenodd;fill:#6FB43F;}
	.st4{fill-rule:evenodd;clip-rule:evenodd;fill:#A51984;}
	.st5{fill:#FFFFFF;}
</style>
<g id="Capa_x0020_1">
	<g id="_100826544">
		<g>
			<rect id="_47405448" x="21.9" y="3.6" class="st0" width="24" height="22.3"/>
			<rect id="_47487656" x="2" y="19.2" class="st1" width="27.2" height="25.2"/>
			<circle id="_47487536" class="st2" cx="16" cy="16.1" r="14"/>
			<circle id="_47499216" class="st3" cx="27.5" cy="27.3" r="18.5"/>
			<circle id="_47462384" class="st4" cx="19.3" cy="32.2" r="12.3"/>
			<g>
				<path id="_47478936" class="st5" d="M9,34.1c0.4,0,0.8,0.3,0.9,0.3l0.4-1.4c-1-0.6-3.7-0.8-3.9,1.9c-0.2,2.4,2.6,2.9,3.9,1.9
					l-0.6-1.3c-0.1,0-0.5,0.2-0.9,0.2c-0.5,0-0.8-0.4-0.8-0.9C8.2,34.5,8.4,34.1,9,34.1L9,34.1z"/>
				<path id="_48527528" class="st5" d="M15.3,34.9c0-1.1-0.8-2.3-2.5-2.3s-2.5,1.1-2.5,2.3s0.8,2.3,2.5,2.3
					C14.5,37.2,15.3,36.1,15.3,34.9z M12,34.9c0-0.5,0.3-1,0.8-1c0.5,0,0.8,0.5,0.8,1c0,0.5-0.3,1-0.8,1C12.3,35.9,12,35.4,12,34.9z
					"/>
				<polygon id="_100842568" class="st5" points="17.3,32.7 15.8,32.7 15.8,37.2 18.7,37.2 18.7,36 17.3,36 				"/>
				<path id="_100809360" class="st5" d="M24,35c0-1.2-0.8-2.3-2.5-2.3c-1.7,0-2.5,1.2-2.5,2.3c0,1.2,0.8,2.3,2.5,2.3
					C23.2,37.3,24,36.1,24,35z M20.7,35c0-0.5,0.3-1,0.8-1s0.8,0.5,0.8,1s-0.3,1-0.8,1S20.7,35.4,20.7,35z"/>
				<polygon id="_100809504" class="st5" points="28.5,37.2 30,37.2 29.2,32.7 27.6,32.7 27,34.7 26.5,32.7 24.9,32.7 24,37.2 
					25.6,37.2 26,34.9 26.6,37.2 27.5,37.2 28.1,34.9 				"/>
				<path id="_48661416" class="st5" d="M32.8,32.7h-2.3v4.5H33c1,0,1.4-0.5,1.4-1.3c0-0.6-0.4-1-0.9-1.1c0.3-0.1,0.7-0.4,0.7-0.9
					C34.1,33.2,33.6,32.7,32.8,32.7L32.8,32.7z M32,33.7h0.3c0.2,0,0.4,0.1,0.4,0.3c0,0.2-0.1,0.3-0.4,0.3H32V33.7z M32,35.4h0.4
					c0.2,0,0.4,0.1,0.4,0.3c0,0.2-0.2,0.3-0.4,0.3H32V35.4z"/>
				<polygon id="_47479168" class="st5" points="36.4,32.7 34.9,32.7 34.9,37.2 36.4,37.2 				"/>
				<path id="_48453728" class="st5" d="M38.4,32.7l-1.5,4.4h1.5l0.2-0.6h1.3l0.2,0.6h1.5l-1.5-4.4H38.4L38.4,32.7z M39.2,34.6
					l0.3,0.9h-0.6L39.2,34.6z"/>
				<path id="_48489872" class="st5" d="M17,17.1c1.6-0.1,3.3,1.4,3.7,1.6l1.9-5.7C18.4,9.7,7.3,9.7,6.5,20.4
					c-0.7,10,10.8,12.1,16.2,7.9l-1.9-5.5c-0.5,0.2-2.3,1.6-3.9,1.4c-2.2-0.3-3.6-2-3.6-3.8C13.2,18.6,14.6,17.2,17,17.1L17,17.1z"
					/>
				<path id="_48454200" class="st5" d="M41.9,20.7c0-4.7-3.3-9.3-10-9.3c-6.7,0-10,4.7-10,9.3c0,4.7,3.3,9.3,10,9.3
					C38.5,30,41.9,25.4,41.9,20.7z M28.6,20.7c0-1.9,1.1-3.9,3.3-3.9c2.2,0,3.3,2,3.3,3.9c0,1.9-1.1,3.9-3.3,3.9
					C29.7,24.6,28.6,22.6,28.6,20.7z"/>
			</g>
		</g>
	</g>
</g>
</svg>
