<?xml version="1.0" encoding="UTF-8" standalone="no"?>
<svg
   height="40"
   width="40"
   version="1.1"
   id="svg4"
   sodipodi:docname="search_FILL0_wght700_GRAD0_opsz40.svg"
   inkscape:version="1.1.2 (b8e25be833, 2022-02-05)"
   xmlns:inkscape="http://www.inkscape.org/namespaces/inkscape"
   xmlns:sodipodi="http://sodipodi.sourceforge.net/DTD/sodipodi-0.dtd"
   xmlns="http://www.w3.org/2000/svg"
   xmlns:svg="http://www.w3.org/2000/svg">
  <defs
     id="defs8" />
  <sodipodi:namedview
     id="namedview6"
     pagecolor="#ffffff"
     bordercolor="#111111"
     borderopacity="1"
     inkscape:pageshadow="0"
     inkscape:pageopacity="0"
     inkscape:pagecheckerboard="1"
     showgrid="false"
     inkscape:zoom="12.975"
     inkscape:cx="19.961464"
     inkscape:cy="17.880539"
     inkscape:window-width="1366"
     inkscape:window-height="705"
     inkscape:window-x="-8"
     inkscape:window-y="-8"
     inkscape:window-maximized="1"
     inkscape:current-layer="svg4" />
  <path
     d="M 36.113909,40 22.331654,26.251206 q -1.502207,1.141789 -3.522974,1.790505 -2.020768,0.647471 -4.404651,0.647471 -6.0100724,0 -10.2070506,-4.202333 Q 0,20.284512 0,14.370115 0,8.4046694 4.1969784,4.2023345 8.3939566,0 14.3518,0 q 5.959087,0 10.129951,4.2023345 4.170863,4.2023349 4.170863,10.1677805 0,2.334632 -0.646645,4.306929 -0.647889,1.97105 -1.840453,3.630817 L 40,36.108949 Z M 14.404029,23.241711 q 3.730647,0 6.269975,-2.593617 2.538084,-2.593619 2.538084,-6.277979 0,-3.735407 -2.564199,-6.3290255 -2.565442,-2.5936186 -6.24386,-2.5936186 -3.782876,0 -6.373189,2.5936186 -2.5903127,2.5936185 -2.5903127,6.3290255 0,3.68436 2.5903127,6.277979 2.590313,2.593617 6.373189,2.593617 z"
     id="path2"
     style="fill:#bababa;fill-opacity:1;stroke-width:1.24434" />
</svg>
