<?xml version="1.0" encoding="UTF-8" standalone="no"?>
<svg
   height="40"
   width="40"
   version="1.1"
   id="svg4"
   sodipodi:docname="search_FILL0_wght600_GRAD0_opsz40.svg"
   inkscape:version="1.1.2 (b8e25be833, 2022-02-05)"
   xmlns:inkscape="http://www.inkscape.org/namespaces/inkscape"
   xmlns:sodipodi="http://sodipodi.sourceforge.net/DTD/sodipodi-0.dtd"
   xmlns="http://www.w3.org/2000/svg"
   xmlns:svg="http://www.w3.org/2000/svg">
  <defs
     id="defs8" />
  <sodipodi:namedview
     id="namedview6"
     pagecolor="#ffffff"
     bordercolor="#111111"
     borderopacity="1"
     inkscape:pageshadow="0"
     inkscape:pageopacity="0"
     inkscape:pagecheckerboard="1"
     showgrid="false"
     inkscape:zoom="12.975"
     inkscape:cx="19.961464"
     inkscape:cy="32.061657"
     inkscape:window-width="1366"
     inkscape:window-height="705"
     inkscape:window-x="-8"
     inkscape:window-y="-8"
     inkscape:window-maximized="1"
     inkscape:current-layer="svg4" />
  <path
     d="M 36.586239,40 22.56,25.989861 Q 21.01376,27.219406 18.90688,27.940705 16.8,28.663287 14.4,28.663287 q -6.02624,0 -10.21312,-4.198165 Q 0,20.266958 0,14.331002 0,8.3424244 4.18688,4.1712122 8.37376,0 14.34624,0 20.32,0 24.48,4.1712122 q 4.16,4.1712122 4.16,10.1597898 0,2.353847 -0.693761,4.439453 Q 27.253759,20.856061 25.92,22.5669 L 40,36.630944 Z m -22.24,-16.043124 q 4,0 6.773761,-2.806905 2.77376,-2.808188 2.77376,-6.818969 0,-4.010781 -2.77376,-6.8176862 -2.77376,-2.8081884 -6.77376,-2.8081884 -4,0 -6.79936,2.8081884 -2.80064,2.8069052 -2.80064,6.8176862 0,4.010781 2.80064,6.818969 2.79936,2.806905 6.799359,2.806905 z"
     id="path2"
     style="fill:#bababa;fill-opacity:1;stroke-width:1.28172" />
</svg>
