<?xml version="1.0" encoding="UTF-8" standalone="no"?>
<svg
   height="40"
   width="40"
   version="1.1"
   id="svg4"
   sodipodi:docname="search_FILL0_wght700_GRAD0_opsz40.svg"
   inkscape:version="1.1.2 (b8e25be833, 2022-02-05)"
   xmlns:inkscape="http://www.inkscape.org/namespaces/inkscape"
   xmlns:sodipodi="http://sodipodi.sourceforge.net/DTD/sodipodi-0.dtd"
   xmlns="http://www.w3.org/2000/svg"
   xmlns:svg="http://www.w3.org/2000/svg">
  <defs
     id="defs8" />
  <sodipodi:namedview
     id="namedview6"
     pagecolor="#ffffff"
     bordercolor="#111111"
     borderopacity="1"
     inkscape:pageshadow="0"
     inkscape:pageopacity="0"
     inkscape:pagecheckerboard="1"
     showgrid="false"
     inkscape:zoom="12.975"
     inkscape:cx="19.961464"
     inkscape:cy="20.038536"
     inkscape:window-width="1366"
     inkscape:window-height="705"
     inkscape:window-x="-8"
     inkscape:window-y="-8"
     inkscape:window-maximized="1"
     inkscape:current-layer="svg4" />
  <path
     d="M32.958 36.292 21.875 25.25Q20.667 26.167 19.042 26.688Q17.417 27.208 15.5 27.208Q10.667 27.208 7.292 23.833Q3.917 20.458 3.917 15.708Q3.917 10.917 7.292 7.542Q10.667 4.167 15.458 4.167Q20.25 4.167 23.604 7.542Q26.958 10.917 26.958 15.708Q26.958 17.583 26.438 19.167Q25.917 20.75 24.958 22.083L36.083 33.167ZM15.5 22.833Q18.5 22.833 20.542 20.75Q22.583 18.667 22.583 15.708Q22.583 12.708 20.521 10.625Q18.458 8.542 15.5 8.542Q12.458 8.542 10.375 10.625Q8.292 12.708 8.292 15.708Q8.292 18.667 10.375 20.75Q12.458 22.833 15.5 22.833Z"
     id="path2"
     style="fill:#bababa;fill-opacity:1" />
</svg>
