<?xml version="1.0" encoding="utf-8"?>
<!-- Generator: Adobe Illustrator 25.1.0, SVG Export Plug-In . SVG Version: 6.00 Build 0)  -->
<svg version="1.1" id="Capa_1" xmlns="http://www.w3.org/2000/svg" xmlns:xlink="http://www.w3.org/1999/xlink" x="0px" y="0px"
	 viewBox="0 0 48 48" style="enable-background:new 0 0 48 48;" xml:space="preserve">
<style type="text/css">
	.st0{fill:#004884;}
</style>
<path class="st0" d="M24,0C10.7,0,0,10.7,0,24s10.7,24,24,24s24-10.7,24-24S37.3,0,24,0z M32.9,36.5H14.6v-3.6l9.3-8.8
	c1-0.9,1.7-1.8,2-2.4s0.5-1.4,0.5-2c0-1-0.3-1.7-1-2.2s-1.6-0.8-2.9-0.8c-1.1,0-2,0.2-2.9,0.6c-0.9,0.4-1.6,1-2.1,1.8l-4.1-2.6
	c0.9-1.4,2.2-2.5,3.9-3.3c1.7-0.8,3.6-1.2,5.7-1.2c1.8,0,3.4,0.3,4.7,0.9c1.3,0.6,2.4,1.4,3.1,2.5c0.7,1.1,1.1,2.3,1.1,3.8
	c0,1.3-0.3,2.5-0.8,3.7c-0.6,1.2-1.6,2.5-3.2,3.9l-5.6,5.3h10.4V36.5z"/>
</svg>
